<svg viewBox="31.236486486486513 0 366.6891891891892 544.9999999999999" xmlns="http://www.w3.org/2000/svg" xmlns:xlink="http://www.w3.org/1999/xlink" overflow="visible" width="366.6891891891892px" height="544.9999999999999px">
<style>
#Oval {
  animation: float-background 20s infinite;
}
#Polygon {
  animation: float-foreground 15s infinite;
}
@keyframes float-background{
  50%{
    transform: translateY(1.5vh);
  }
}
@keyframes float-foreground{
  50%{
    transform: translateY(3vh);
  }
}
</style>
<defs><path d="M148.640872,414.988848 L27.7458936,419.210594 C18.7158011,419.525932 11.1398329,412.461227 10.8244951,403.431135 L0.375077719,104.198971 C0.0597399402,95.168878 7.12444451,87.5929099 16.154537,87.2775721 L44.8578599,0.650926334 L340.15489,0.650926334 L340.15489,545.324194 L210.432361,545.324194 C170.3946,458.393575 149.797437,414.94846 148.640872,414.988848 Z" id="mastercompositionphone-path-1"/></defs><g id="Master/Composition/Phone" stroke="none" stroke-width="1" fill="none" fill-rule="evenodd"><g id="Background" opacity=".2" transform="translate(46.000000, -1.000000)"><circle id="Oval" fill="var(--theme-color--pop)" cx="154.851" cy="198.267" r="154.851"/><circle id="Oval" fill="var(--theme-color--accent)" cx="249.109" cy="518.069" r="27.604"/><polygon id="Polygon" fill="#393f82" points="129.277228 0.98019802 162.277228 33.980198 129.277228 66.980198 96.2772277 33.980198"/><polygon id="Polygon" fill="#FFA434" points="37.7029703 465.554455 53.8613861 481.712871 37.7029703 497.871287 21.5445545 481.712871"/><polygon id="Polygon" fill="#2026A2" points="271.326733 43.4158416 279.405941 51.4950495 271.326733 59.5742574 263.247525 51.4950495"/></g><g id="Phone" transform="translate(31.830542, 74.998197)"><path d="M23.6844272,4.19999901 L143.520295,0.0152382774 C157.065434,-0.457768391 168.429386,10.1392885 168.902393,23.6844272 L179.313777,321.827451 C179.786784,335.37259 169.189727,346.736542 155.644588,347.209549 L35.8087197,351.394309 C22.2635809,351.867316 10.8996288,341.270259 10.4266221,327.72512 L0.0152382774,29.5820966 C-0.457768391,16.0369579 10.1392885,4.67300568 23.6844272,4.19999901 Z" id="base" fill="#F2F2F2"/><path d="M42.5752937,13.6798635 C42.7508502,18.7071431 46.8976668,22.6594379 51.8955462,22.627117 L52.1640861,22.6215571 L116.370557,20.3794177 C121.397837,20.2038613 125.350132,16.0570446 125.317811,11.0591652 L125.312251,10.7906253 L125.217065,8.06485602 L144.064084,7.40670361 C153.094176,7.09136583 160.670144,14.1560704 160.985482,23.1861629 L171.4349,322.418327 C171.750237,331.44842 164.685533,339.024388 155.65544,339.339726 L34.760462,343.561471 C25.7303695,343.876809 18.1544014,336.812104 17.8390636,327.782012 L7.38964619,28.5498477 C7.07430841,19.5197552 14.139013,11.9437871 23.1691055,11.6284493 L42.4801077,10.9540942 L42.5752937,13.6798635 Z" id="Screen" fill="#240E6A"/></g><g id="Character" transform="translate(294.500000, 349.500000) scale(-1, 1) translate(-294.500000, -349.500000) translate(191.000000, 200.000000)"><g id="Head/Front" transform="translate(74.572859, 52.187723) rotate(-27.000000) translate(-74.572859, -52.187723) translate(28.790680, 17.177822) scale(0.6732647058823529 0.6732692307692307)"><g id="Head/Front/Curly" stroke="none" stroke-width="1" fill="none" fill-rule="evenodd"><g id="Head" transform="translate(54.000000, 31.000000)" fill="#57331f"><path d="M38.1433414,9.13393292 C43.9381521,19.9350547 43.249578,47.3329958 35.7603014,49.2634576 C32.773664,50.0333035 26.4113241,48.1475566 19.935865,44.2446031 L24,73 L0,73 L8.26160177,34.4893378 C3.65406109,29.0807313 0.535660132,22.452516 1.05677633,15.0254539 C2.55833022,-6.37502057 32.3485306,-1.66718886 38.1433414,9.13393292 Z" id="SKIN"/></g><path d="M102.7757,25.1604378 C102.27871,23.413499 100.941932,21.9177553 99.1403997,21.4740102 C98.7035309,21.3663739 98.2523568,21.3228991 97.8028308,21.3410245 C97.6415842,21.3474604 97.5963613,21.3939561 97.5210118,21.2811974 C97.4651095,21.197597 97.463857,20.9933574 97.44085,20.8951122 C97.3692581,20.5896064 97.2797352,20.2879096 97.169249,19.9940277 C96.7923038,18.9916772 96.1588538,18.1045809 95.3952068,17.3573001 C93.9668625,15.9592762 92.0369134,14.9944243 90.0318126,14.8198684 C88.9343996,14.7243814 87.8449632,14.9026807 86.8074738,15.2596732 C86.2703367,15.444474 85.7494825,15.6745884 85.2422083,15.9290015 C85.0894658,16.0055749 84.5939258,16.3806273 84.4406558,16.3563287 C84.2713667,16.3295345 83.9311403,15.9088402 83.793494,15.8032397 C82.0920984,14.4978789 79.9910802,13.9846529 77.8718674,14 C75.4798671,14.0180142 73.1765325,14.1375371 71.1815838,15.5957165 C70.7592838,15.9044402 70.3570902,16.2424535 69.974146,16.5983297 C69.7724889,16.7856917 69.5771603,16.9800806 69.3908631,17.1825471 C69.2784651,17.3046969 69.1690337,17.4296049 69.0636894,17.5578621 C68.8849074,17.7755645 68.9135837,17.8470813 68.6633416,17.6951821 C67.7032454,17.1118841 66.5906702,16.8390829 65.4700524,16.976797 C64.80463,17.0586242 64.1572045,17.2583982 63.5424765,17.5213485 C63.3331724,17.6108594 62.8487074,17.9679176 62.6256255,17.9713982 C62.4043234,17.9748132 61.9266485,17.6438267 61.6986882,17.5597009 C60.4674524,17.1051856 59.1403652,16.9931493 57.8462393,17.2031681 C56.5113072,17.4198854 55.1999755,17.9524847 54.068942,18.6884699 C53.524949,19.0425073 53.0503065,19.4347656 52.6690763,19.9611918 C52.5044676,20.1884823 52.3556804,20.4289072 52.1691195,20.6396484 C52.0598858,20.7630459 51.8435939,20.8896614 51.7849887,21.0458292 C51.8200595,20.9523124 50.3250675,20.3759756 50.1839932,20.3391337 C49.43241,20.1428403 48.6671149,20.1826375 47.9311554,20.4248355 C46.5472429,20.8802703 45.3570768,21.9016 44.3789178,22.9487388 C43.8765219,23.4865919 43.4368843,24.0811198 43.0636966,24.7145254 C42.8848487,25.0179297 42.7212948,25.3300027 42.5716506,25.6487085 C42.4991357,25.8031032 42.4510782,25.9962443 42.3555564,26.1353375 C42.232413,26.3145561 42.1496802,26.3179711 41.9266642,26.3961207 C40.7940485,26.7929104 39.7615692,27.4645372 38.9753108,28.3720574 C38.1800209,29.2902166 37.663979,30.42089 37.4476212,31.6115877 C37.4348981,31.6817253 37.427317,31.9723892 37.3862473,32.0103476 C37.3299494,32.0626224 37.1021869,32.0395059 37.0160261,32.0496194 C36.7176606,32.0846225 36.4214046,32.1367003 36.1291039,32.2059185 C35.5902528,32.3334534 35.0657729,32.5211438 34.5696396,32.7666254 C32.6356033,33.723531 31.2525478,35.5174909 30.5756549,37.5361144 C29.8654051,39.6545592 29.8779963,42.0815964 30.7268813,44.1605068 C30.8640002,44.4962873 31.0271586,44.8222171 31.2187955,45.1305467 C31.3364672,45.3198132 31.3744386,45.3202729 31.2980344,45.5188648 C31.2128624,45.7397851 31.0572852,45.9544667 30.9561599,46.1703303 C30.6262175,46.874793 30.3955544,47.6219424 30.2498656,48.3850501 C30.0108303,49.6368226 29.8923675,50.9522969 30.1281725,52.2135918 C30.2376699,52.799254 30.4284498,53.3717818 30.7194979,53.8934139 C30.8678896,54.1593852 31.0415297,54.411631 31.2375834,54.6449634 C31.3393678,54.7661281 31.4474808,54.881842 31.5605381,54.9926962 C31.6252081,55.0560039 31.7099845,55.111431 31.7649639,55.1821597 C31.8991823,55.3546142 31.9273971,55.2128285 31.8581785,55.4660594 C31.7614041,55.8200967 31.5420138,56.1694057 31.4076636,56.5139206 C31.2692262,56.868943 31.1441052,57.2288251 31.0296636,57.5922535 C30.7978799,58.3281731 30.6018921,59.077424 30.479342,59.8395467 C30.2439984,61.3027828 30.2853319,62.8618999 30.9774529,64.204825 C31.2733793,64.7792573 31.6979207,65.2831579 32.2128419,65.6751536 C32.4648638,65.8669157 32.7378492,66.0322119 33.0242168,66.1679557 C33.171356,66.2378307 33.3592353,66.2677771 33.4263445,66.4100881 C33.4985956,66.5631037 33.3913396,66.8669677 33.3668823,67.038043 C33.1540843,68.5263001 33.0473557,70.0888978 33.489762,71.5473398 C33.8972294,72.890659 34.7943696,74.0766939 35.9591555,74.8619331 C38.2187834,76.3851933 41.2646697,76.2992944 43.6389369,75.0798325 C44.257818,74.7619147 44.8368159,74.3672265 45.3533193,73.9016782 C46.6685404,75.6721932 49.3749915,75.6161751 51.2972276,75.1116834 C53.6920627,74.4832031 55.6137056,72.8179602 56.7208751,70.6300344 C58.2347869,72.4729856 61.411991,71.8750427 62.4618079,69.8757268 C62.718774,69.3864053 62.871187,68.8471075 62.9462069,68.3013738 C62.9856945,68.0143875 62.9605121,67.7249057 62.9901773,67.4402179 C63.0280168,67.0774462 63.2703482,66.7249193 63.4096426,66.3739686 C63.6809139,65.6909806 63.8493461,64.9854671 63.8565976,64.2487595 C63.8603552,63.8641191 63.8116384,63.4892637 63.7750514,63.1077099 C63.742156,62.7642457 63.8374141,62.4442264 63.8915365,62.105228 C63.277336,62.2063627 62.5290489,62.0407382 61.9503806,61.8626359 C61.3825236,61.6878829 60.8506603,61.2275884 60.4498511,60.8072225 C59.5192222,59.831075 58.950706,58.5514576 58.5618947,57.2778821 C57.7083952,54.4826224 58.0582462,51.1289544 60.8697779,49.5948583 C62.1795274,48.8802164 66.1033718,48.8825605 67.6633416,49.2357609 C69.3035816,49.6071356 71.1630595,53.2263842 71.25456,53.5665648 C71.3111875,53.7771089 71.282709,54.0376951 71.4761258,54.1779703 C71.9011945,54.4864314 72.6022151,53.9511395 72.9157428,53.6869414 C73.4567694,53.2309812 73.8426801,52.624304 74.1769075,52.0093522 C74.9051541,50.669645 75.4922605,49.2329403 75.9069794,47.7662893 C76.2267038,46.6355502 76.4311297,45.4695452 76.8490129,44.367636 C77.2648524,43.2711776 77.9203865,42.2911555 78.9396153,41.6700305 C80.048367,40.9943321 81.3192882,40.638456 82.5364825,40.2138213 C83.7429973,39.7929956 84.9286806,39.2786532 85.8639241,38.385712 C86.0695366,38.189353 86.269282,37.9807133 86.4348135,37.7495481 C86.5654721,37.5670459 86.6946144,37.2176712 86.8937005,37.1019573 C87.203207,36.9219506 87.6549084,37.39006 87.9225541,37.560019 C89.2429831,38.3986494 90.3446151,39.5682663 91.2331195,40.8459792 C92.1166797,42.1167309 92.841683,43.3394764 93.430833,44.7584496 C93.8678337,45.8108422 94.1405685,47.158627 94.9091597,48.0210964 C95.2522867,48.4061965 97.8028308,48.6391716 98.6289725,48.3029602 C99.4551141,47.9667489 100.380997,47.0937432 100.658267,46.5466304 C100.942129,45.9866459 101.009964,45.371497 100.888666,44.7584496 C100.817338,44.3977794 100.671649,44.0608825 100.591949,43.7066481 C100.52484,43.4090887 100.463927,43.1278158 100.319095,42.8552117 C100.044594,42.3386363 99.5756205,41.9673273 99.0100708,41.8120789 C99.5986275,41.2694318 100.086323,40.6202648 100.42378,39.8945901 C100.774422,39.1406764 101.071601,38.2238307 101.155916,37.3963645 C101.224476,36.7242781 101.11867,36.0279587 100.750756,35.4503742 C100.36478,34.844485 99.6810307,34.4492057 99.0894416,34.0712638 C99.9931082,33.3642399 100.766512,32.5043974 101.402335,31.5524173 C102.638845,29.7011258 103.403678,27.3675397 102.7757,25.1604378 Z" id="hair" fill="#181658"/></g></g><g id="Bottom/Standing" transform="translate(4.712871, 137.346535) scale(0.6732666666666667 0.6732677824267782)"><g id="Bottom/Standing/Baggy Pants" stroke="none" stroke-width="1" fill="none" fill-rule="evenodd"><polygon id="SKIN" fill="#57331f" points="134 0 183.081639 124.226909 216.000898 229.25029 229 229.25029 176.673688 5.090379e-13"/><path d="M124.116628,0 C123.593979,43.6541888 115.971833,102.427468 114.754071,105.148648 C113.942229,106.962768 85.9161573,130.032465 30.6758546,174.357739 L39.6290713,183.938736 C104.807511,145.935376 138.9048,124.399339 141.920937,119.330628 C146.445143,111.72756 161.1744,41.763137 173,0 L124.116628,0 Z" id="SKIN" fill="#57331f"/><g id="Left" transform="translate(43.901184, 194.723460) rotate(50.000000) translate(-43.901184, -194.723460) translate(14.901184, 184.223460)" fill="#E4E4E4"><path d="M1.67813181,6.40192425 C0.559377268,9.38841089 -2.27373675e-13,11.6229931 -2.27373675e-13,13.1056708 C-2.27373675e-13,14.908957 0.300414205,17.5404001 0.901242614,21 C2.99318117,21 21.7937852,21 57.3030548,21 C58.768738,16.1545073 57.9226607,13.5385816 54.7648228,13.1522232 C51.606985,12.7658647 48.9837155,12.4170139 46.8950143,12.1056708 L20.6799926,0.41888346 C20.1755635,0.194006431 19.584344,0.4206282 19.359467,0.925057349 C19.35562,0.933686736 19.3518954,0.94237021 19.3482945,0.951105155 L17.6632131,5.03869504 L17.6632131,5.03869504 C14.7398812,6.40265216 12.3643706,7.08463071 10.5366811,7.08463071 C9.05172687,7.08463071 7.00099246,6.48490544 4.38447792,5.28545491 L4.38448339,5.28544297 C3.38038273,4.82514778 2.19325534,5.26598921 1.73296014,6.27008987 C1.71312074,6.31336808 1.69483298,6.35734088 1.67813181,6.40192425 Z" id="shoe"/></g><g id="Right-{Shoe]" transform="translate(209.000000, 218.000000)" fill="#E4E4E4"><path d="M1.67813181,6.40192425 C0.559377268,9.38841089 0,11.6229931 0,13.1056708 C0,14.908957 0.300414205,17.5404001 0.901242614,21 C2.99318117,21 21.7937852,21 57.3030548,21 C58.768738,16.1545073 57.9226607,13.5385816 54.7648228,13.1522232 C51.606985,12.7658647 48.9837155,12.4170139 46.8950143,12.1056708 L20.6799926,0.41888346 C20.1755635,0.194006431 19.584344,0.4206282 19.359467,0.925057349 C19.35562,0.933686736 19.3518954,0.94237021 19.3482945,0.951105155 L17.6632131,5.03869504 L17.6632131,5.03869504 C14.7398812,6.40265216 12.3643706,7.08463071 10.5366811,7.08463071 C9.05172687,7.08463071 7.00099246,6.48490544 4.38447792,5.28545491 L4.38448339,5.28544297 C3.38038273,4.82514778 2.19325534,5.26598921 1.73296014,6.27008987 C1.71312074,6.31336808 1.69483298,6.35734088 1.67813181,6.40192425 Z" id="shoe"/></g><polygon id="Pant" fill="#191847" points="167 218.432889 228.804464 211.725327 179 2.84217094e-14 127.644073 2.84217094e-14"/><path d="M43.4599581,158.900479 L84,206.885961 C126.699953,160.249961 151.594137,129.819963 158.682552,115.595966 C165.770967,101.37197 172.143091,62.839981 177.798925,0 L115.478146,0 C112.388642,55.2838742 110.306102,84.2121259 109.230525,86.7847551 C108.154948,89.3573843 86.2314253,113.395959 43.4599581,158.900479 Z" id="Pant" fill="#393f82"/></g></g><g id="Body" transform="translate(99.164335, 132.426606) rotate(-14.000000) translate(-99.164335, -132.426606) translate(12.986117, 69.476111) scale(0.673265625 0.6732673796791444)"><g id="Body/Jacket 2" stroke="none" stroke-width="1" fill="none" fill-rule="evenodd"><path d="M51.5082829,82 L72,86.0658446 C51.3920824,124.471059 40.3404263,144.825845 38.8450319,147.130202 C35.4803944,152.315007 38.6196693,161.817238 39.7793043,166.821179 C32.5044044,168.51462 35.3734014,157.565005 26.1671562,159.851185 C17.7641225,161.937904 10.6393632,167.293169 2.8038784,160.07074 C1.84055159,159.182785 1.13535082,156.407288 4.41981989,154.983749 C12.6026301,151.437195 24.6920431,144.796343 26.6523424,142.218096 C29.3255608,138.702197 37.6108743,118.629498 51.5082829,82 Z M254.188168,51.2551684 L253.816855,51.7996726 C250.728428,56.3479545 247.838405,61.1194481 249.076289,62.7052963 C250.363689,64.3545786 254.093006,62.5342201 255.566345,65.2162765 C256.548571,67.0043141 250.262286,69.1431805 236.707491,71.6328758 L209.56994,92.4392868 L198,77.6170876 L234.234567,61.7041739 C240.582018,55.3790221 246.711387,50.5716141 252.622674,47.2819501 C254.390261,46.7192094 257.410101,46.5491987 254.188168,51.2551684 Z" id="SKIN" fill="#57331f"/><path d="M123.280247,9.87718027 L131.765198,7.64600959 C152.120135,24.2050747 163.602366,67.2616718 176.61267,71.9556463 C188.913385,76.3936093 205.208593,69.6320097 224.503164,60.7390322 L231.796052,73.8353428 C215.409826,95.0000245 178.298612,114.916545 161.84294,106.839809 C135.533742,93.9267871 125.046804,40.501408 123.280247,9.87718027 Z" id="Coat-Back" fill="#c21b15" transform="translate(177.538150, 58.161768) rotate(5.000000) translate(-177.538150, -58.161768)"/><path d="M90,114 C124.671756,114 150.175573,114 166.511451,114 C170.007634,114 169.348845,108.951637 168.84345,106.404206 C163.010588,77.0037663 140.241304,45.3115155 140.241304,3.4607303 L118.1718,0 C99.917485,29.3584068 93.6048263,65.5045499 90,114 Z" id="Shirt" fill="#C7D1D9"/><path d="M125.486398,0 C145.298923,67.5369477 150.760885,112.536948 141.872285,135 L141.872285,135 L73,135 C74.0896915,118.562494 77.5838029,101.179176 82.3695915,84.2302075 C66.7719945,112.366884 53.6611932,132.623153 43.0374452,145 L27,141.85882 C37.3305927,77.7906722 67.2466105,30.5043988 116.748053,-9.9475983e-14 Z" id="Coat-Front" fill="#ff4133"/></g></g></g><g id="illustration" transform="translate(38.845110, -0.650926)"><mask id="mastercompositionphone-mask-2" fill="#fff"><use xlink:href="#mastercompositionphone-path-1"/></mask><g id="Screen"/><g mask="url(#mastercompositionphone-mask-2)"><g transform="translate(163.987678, 118.803809) rotate(44.000000) translate(-163.987678, -118.803809) translate(85.677617, 59.000000) scale(1.1516176470588235 1.1500769230769232)" id="Head/Front"><g id="Head/Front/Caesar" stroke="none" stroke-width="1" fill="none" fill-rule="evenodd"><g id="Head" transform="translate(54.000000, 31.000000)" fill="#57331f"><path d="M38.1433414,9.13393292 C43.9381521,19.9350547 43.249578,47.3329958 35.7603014,49.2634576 C32.773664,50.0333035 26.4113241,48.1475566 19.935865,44.2446031 L24,73 L0,73 L8.26160177,34.4893378 C3.65406109,29.0807313 0.535660132,22.452516 1.05677633,15.0254539 C2.55833022,-6.37502057 32.3485306,-1.66718886 38.1433414,9.13393292 Z" id="SKIN"/></g><path d="M74,29 C86.8690713,29 91.7485692,34.3062174 92,39 C86.4853531,40.5156046 76.8492499,41.0992165 63,41 L63,42 L75,43 L77,49 C73.818039,48.7624584 71.5442321,50.9450202 69.7297608,53.8671184 C68.9456796,53.3278818 68.0076493,53 67,53 C64.2385763,53 62,55.4624339 62,58 C62,60.6396292 63.2463746,62.6806558 65.0263305,63.5467302 C64.0760809,65.4058117 63.1200109,66.7549645 62,67 C57.6781395,66.5628085 52,55.8205201 52,47 C52,37.3455086 59.6819829,29 74,29 Z" id="Combined-Shape" fill="#181658"/></g></g></g><g mask="url(#mastercompositionphone-mask-2)"><g transform="translate(28.693069, 365.730659) rotate(12.000000) translate(-28.693069, -365.730659) translate(-144.000000, 228.047491) scale(1.1512866666666668 1.1521589958158995)" id="Bottom/Standing"><g id="Bottom/Standing/Sweatpants" stroke="none" stroke-width="1" fill="none" fill-rule="evenodd"><polygon id="SKIN" fill="#57331f" points="128 9.9475983e-14 164.630838 126.226909 181.860154 221 199.153197 221 181.890974 9.9475983e-14"/><polygon id="Shadow" fill-opacity=".1" fill="#000" points="128 9.9475983e-14 164.630838 126.226909 181.860154 221 199.153197 221 181.890974 9.9475983e-14"/><path d="M111.537727,0 C114.093705,65.5742244 113.085665,101.340188 112.513606,107.297892 C111.941548,113.255595 108.69393,153.156298 86.5636874,223 L104.549973,223 C133.85784,155.996902 144.088936,116.096199 147.450326,107.297892 C150.811717,98.4995844 160.739403,62.7336205 175.233385,0 L111.537727,0 Z" id="SKIN" fill="#57331f"/><path d="M127.213639,1.13686838e-13 C136.741891,43.4350253 153.221683,112.768359 176.653017,208 L201.946059,208 C203.814239,110.253828 195.86709,45.9204947 182.104613,1.13686838e-13 L127.213639,1.13686838e-13 Z" id="Pant" fill="#191847"/><path d="M111.409919,0 C113.913164,65.5742244 107.425844,130.177256 87.3305078,209.020958 L114.316793,209.020958 C143.678541,143.017859 164.723052,78.7336205 179.105577,0 L111.409919,0 Z" id="Pant" fill="#393f82"/><g id="Left" transform="translate(84.000000, 218.000000)" fill="#191847"><path d="M0,18 L0.99242267,2 C6.8029179,3.69942511 14.0806841,3.03275844 22.8257214,0 C32.2287535,6.660617 44.0659431,11.2086712 58.3372903,13.6441626 C59.4261013,13.829999 60.1581292,14.8632891 59.9723163,15.9521041 C59.9602834,16.0226139 59.9444765,16.0924273 59.9249637,16.1612435 L58.5529375,21 L58.5529375,21 L22.8257214,21 L1.98484534,21 L0,18 Z" id="Shoe"/></g><g id="Right" transform="translate(178.000000, 218.000000)" fill="#191847"><path d="M0,18 L0.99242267,2 C6.8029179,3.69942511 14.0806841,3.03275844 22.8257214,0 C32.2287535,6.660617 44.0659431,11.2086712 58.3372903,13.6441626 C59.4261013,13.829999 60.1581292,14.8632891 59.9723163,15.9521041 C59.9602834,16.0226139 59.9444765,16.0924273 59.9249637,16.1612435 L58.5529375,21 L58.5529375,21 L22.8257214,21 L1.98484534,21 L0,18 Z" id="Shoe"/></g></g></g></g><g mask="url(#mastercompositionphone-mask-2)"><g transform="translate(76.428931, 237.169427) rotate(33.000000) translate(-76.428931, -237.169427) translate(-70.978244, 129.637579) scale(1.1516171875 1.1500748663101603)" id="Body"><g id="Body/Jacket" stroke="none" stroke-width="1" fill="none" fill-rule="evenodd"><path d="M68.3079281,93.0198914 L89.2053198,93.1020711 C76.3021447,134.755739 69.3363474,156.856914 68.3079281,159.405597 C65.9939846,165.140133 70.8906002,173.873732 72.9845874,178.567103 C66.1645409,181.61887 66.8912241,170.316929 58.2879189,174.319492 C50.4352209,177.972846 44.4616931,184.59248 35.3890352,178.994371 C34.2736052,178.306117 33.0512757,175.714714 36.0045784,173.68967 C43.3623323,168.644547 53.9653015,159.814672 55.3979297,156.908251 C57.3515741,152.944826 61.6549068,131.648706 68.3079281,93.0198914 L68.3079281,93.0198914 Z M194.04441,89.1225115 L222.372314,116.757535 C230.61469,120.273345 237.368143,124.155511 242.632673,128.40403 C243.816587,129.832102 245.10547,132.568362 239.535214,131.343925 C233.964957,130.119488 228.050816,129.082079 227.003896,130.893567 C225.956977,132.705055 229.041811,135.480899 227.106974,137.851671 C225.817082,139.432186 221.479076,134.404878 214.092956,122.769747 L184.635682,105.402467 L194.04441,89.1225115 Z" id="SKIN" fill="#57331f"/><path d="M122.01899,9.23199981 L130.503942,7.00082913 C148.576175,42.7520052 177.414525,74.1501034 217.01899,101.195124 L192.061793,137.56505 C151.33882,97.6857553 124.670571,55.1985909 122.01899,9.23199981 Z" id="Coat-Back" fill="#c21b15" transform="translate(169.518990, 72.282940) rotate(5.000000) translate(-169.518990, -72.282940)"/><path d="M90,114 L167,114 C149.16087,70.6251468 140.241304,33.7787236 140.241304,3.4607303 L117.014208,0 C98.7598929,29.3584068 93.6048263,65.5045499 90,114 Z" id="Shirt" fill="#C7D1D9"/><path d="M118.047752,-4.26325641e-14 C119.86198,0.0624731357 122.625282,0.175030894 126.337658,0.337673275 L126.337658,0.337673275 L131.950158,16.3768801 C132.543836,35.9324229 136.010826,75.3421183 142.351127,134.605966 L142.351127,134.605966 L91.8760675,134.60553 C92.008386,138.698782 92.2265651,142.830272 92.5306047,147 L92.5306047,147 L55,147 C60.6139164,83.6639633 81.1152373,34.6639633 116.503963,1.42108547e-14 L116.503963,1.42108547e-14 L116.522,0.017 L116.531583,-4.26325641e-14 Z" id="Coat-Front" fill="#ff4133"/><path d="M106,135 L91.889057,134.999288 C91.2713571,116.643048 92.3783198,99.0548837 95.2099449,82.2347951 C96.6469231,107.748771 100.243477,125.3371 106,135 Z" id="Shade" fill-opacity=".1" fill="#000"/><polygon id="Light" fill-opacity=".2" fill="#FFF" points="103.110899 104 128 92.4292718 128 104"/></g></g></g></g></g></svg>