<svg viewBox="38.02702702702703 61.31249999999994 325.94594594594594 442.8125000000001" xmlns="http://www.w3.org/2000/svg" overflow="visible" xmlns:xlink="http://www.w3.org/1999/xlink" width="325.94594594594594px" height="442.8125000000001px"><g id="Master/Composition/Wireframe" stroke="none" stroke-width="1" fill="none" fill-rule="evenodd"><g id="UI" transform="translate(39.000000, 63.000000)"><g id="Cards" transform="translate(175.000000, 89.000000)"><g id="Group"><g id="Group-7"><path d="M22.560991,19.1119691 L22.9904376,19.1119691 C27.7013346,19.1119691 31.6349121,20.0402252 34.8941713,21.7832961 C38.1534306,23.5263671 40.7113163,26.0842528 42.4543872,29.3435121 C44.1974582,32.6027713 45.1257143,36.5363488 45.1257143,41.2472458 L45.1257143,58.1349936 C45.1257143,62.8458906 44.1974582,66.779468 42.4543872,70.0387273 C40.7113163,73.2979866 38.1534306,75.8558723 34.8941713,77.5989432 C31.6349121,79.3420142 27.7013346,80.2702703 22.9904376,80.2702703 L22.560991,80.2702703 C17.850094,80.2702703 13.9165165,79.3420142 10.6572573,77.5989432 C7.39799799,75.8558723 4.84011225,73.2979866 3.09704132,70.0387273 C1.3539704,66.779468 0.425714286,62.8458906 0.425714286,58.1349936 L0.425714286,41.2472458 C0.425714286,36.5363488 1.3539704,32.6027713 3.09704132,29.3435121 C4.84011225,26.0842528 7.39799799,23.5263671 10.6572573,21.7832961 C13.9165165,20.0402252 17.850094,19.1119691 22.560991,19.1119691 Z" id="Rectangle-2" fill="#BAEBFF"/><path d="M22.560991,231.042471 L22.9904376,231.042471 C27.7013346,231.042471 31.6349121,231.970727 34.8941713,233.713798 C38.1534306,235.456869 40.7113163,238.014755 42.4543872,241.274014 C44.1974582,244.533273 45.1257143,248.466851 45.1257143,253.177748 L45.1257143,289.177465 C45.1257143,293.888362 44.1974582,297.821939 42.4543872,301.081198 C40.7113163,304.340458 38.1534306,306.898343 34.8941713,308.641414 C31.6349121,310.384485 27.7013346,311.312741 22.9904376,311.312741 L22.560991,311.312741 C17.850094,311.312741 13.9165165,310.384485 10.6572573,308.641414 C7.39799799,306.898343 4.84011225,304.340458 3.09704132,301.081198 C1.3539704,297.821939 0.425714286,293.888362 0.425714286,289.177465 L0.425714286,253.177748 C0.425714286,248.466851 1.3539704,244.533273 3.09704132,241.274014 C4.84011225,238.014755 7.39799799,235.456869 10.6572573,233.713798 C13.9165165,231.970727 17.850094,231.042471 22.560991,231.042471 Z" id="Rectangle-2-Copy-9" fill="#B8DBE9"/><path d="M126.435277,155.868726 L126.864723,155.868726 C131.57562,155.868726 135.509198,156.796982 138.768457,158.540053 C142.027716,160.283124 144.585602,162.84101 146.328673,166.100269 C148.071744,169.359528 149,173.293106 149,178.004003 L149,194.89175 C149,199.602647 148.071744,203.536225 146.328673,206.795484 C144.585602,210.054743 142.027716,212.612629 138.768457,214.3557 C135.509198,216.098771 131.57562,217.027027 126.864723,217.027027 L126.435277,217.027027 C121.72438,217.027027 117.790802,216.098771 114.531543,214.3557 C111.272284,212.612629 108.714398,210.054743 106.971327,206.795484 C105.228256,203.536225 104.3,199.602647 104.3,194.89175 L104.3,178.004003 C104.3,173.293106 105.228256,169.359528 106.971327,166.100269 C108.714398,162.84101 111.272284,160.283124 114.531543,158.540053 C117.790802,156.796982 121.72438,155.868726 126.435277,155.868726 Z" id="Rectangle-2-Copy-8" fill="#B8DBE9"/><path d="M74.4981338,19.1119691 L74.9275805,19.1119691 C79.6384775,19.1119691 83.5720549,20.0402252 86.8313142,21.7832961 C90.0905734,23.5263671 92.6484592,26.0842528 94.3915301,29.3435121 C96.134601,32.6027713 97.0628571,36.5363488 97.0628571,41.2472458 L97.0628571,86.590592 C97.0628571,91.3014891 96.134601,95.2350665 94.3915301,98.4943258 C92.6484592,101.753585 90.0905734,104.311471 86.8313142,106.054542 C83.5720549,107.797613 79.6384775,108.725869 74.9275805,108.725869 L74.4981338,108.725869 C69.7872368,108.725869 65.8536594,107.797613 62.5944001,106.054542 C59.3351408,104.311471 56.7772551,101.753585 55.0341842,98.4943258 C53.2911133,95.2350665 52.3628571,91.3014891 52.3628571,86.590592 L52.3628571,41.2472458 C52.3628571,36.5363488 53.2911133,32.6027713 55.0341842,29.3435121 C56.7772551,26.0842528 59.3351408,23.5263671 62.5944001,21.7832961 C65.8536594,20.0402252 69.7872368,19.1119691 74.4981338,19.1119691 Z" id="Rectangle-2-Copy" fill="#8AB8F1"/><path d="M126.435277,75.5984556 L126.864723,75.5984556 C131.57562,75.5984556 135.509198,76.5267117 138.768457,78.2697826 C142.027716,80.0128536 144.585602,82.5707393 146.328673,85.8299986 C148.071744,89.0892578 149,93.0228353 149,97.7337323 L149,123.965109 C149,128.676006 148.071744,132.609584 146.328673,135.868843 C144.585602,139.128102 142.027716,141.685988 138.768457,143.429059 C135.509198,145.17213 131.57562,146.100386 126.864723,146.100386 L126.435277,146.100386 C121.72438,146.100386 117.790802,145.17213 114.531543,143.429059 C111.272284,141.685988 108.714398,139.128102 106.971327,135.868843 C105.228256,132.609584 104.3,128.676006 104.3,123.965109 L104.3,97.7337323 C104.3,93.0228353 105.228256,89.0892578 106.971327,85.8299986 C108.714398,82.5707393 111.272284,80.0128536 114.531543,78.2697826 C117.790802,76.5267117 121.72438,75.5984556 126.435277,75.5984556 Z" id="Rectangle-2-Copy-4" fill="#B8DBE9"/><path d="M74.4981338,118.069498 L74.9275805,118.069498 C79.6384775,118.069498 83.5720549,118.997754 86.8313142,120.740825 C90.0905734,122.483896 92.6484592,125.041782 94.3915301,128.301041 C96.134601,131.5603 97.0628571,135.493878 97.0628571,140.204775 L97.0628571,143.077079 C97.0628571,147.787976 96.134601,151.721553 94.3915301,154.980812 C92.6484592,158.240072 90.0905734,160.797957 86.8313142,162.541028 C83.5720549,164.284099 79.6384775,165.212355 74.9275805,165.212355 L74.4981338,165.212355 C69.7872368,165.212355 65.8536594,164.284099 62.5944001,162.541028 C59.3351408,160.797957 56.7772551,158.240072 55.0341842,154.980812 C53.2911133,151.721553 52.3628571,147.787976 52.3628571,143.077079 L52.3628571,140.204775 C52.3628571,135.493878 53.2911133,131.5603 55.0341842,128.301041 C56.7772551,125.041782 59.3351408,122.483896 62.5944001,120.740825 C65.8536594,118.997754 69.7872368,118.069498 74.4981338,118.069498 Z" id="Rectangle-2-Copy-5" fill="#B8DBE9"/><path d="M126.435277,19.1119691 L126.864723,19.1119691 C131.57562,19.1119691 135.509198,20.0402252 138.768457,21.7832961 C142.027716,23.5263671 144.585602,26.0842528 146.328673,29.3435121 C148.071744,32.6027713 149,36.5363488 149,41.2472458 L149,44.1195496 C149,48.8304466 148.071744,52.764024 146.328673,56.0232833 C144.585602,59.2825425 142.027716,61.8404283 138.768457,63.5834992 C135.509198,65.3265701 131.57562,66.2548263 126.864723,66.2548263 L126.435277,66.2548263 C121.72438,66.2548263 117.790802,65.3265701 114.531543,63.5834992 C111.272284,61.8404283 108.714398,59.2825425 106.971327,56.0232833 C105.228256,52.764024 104.3,48.8304466 104.3,44.1195496 L104.3,41.2472458 C104.3,36.5363488 105.228256,32.6027713 106.971327,29.3435121 C108.714398,26.0842528 111.272284,23.5263671 114.531543,21.7832961 C117.790802,20.0402252 121.72438,19.1119691 126.435277,19.1119691 Z" id="Rectangle-2-Copy-2" fill="#B8DBE9"/><path d="M22.560991,146.525097 L22.9904376,146.525097 C27.7013346,146.525097 31.6349121,147.453353 34.8941713,149.196424 C38.1534306,150.939494 40.7113163,153.49738 42.4543872,156.756639 C44.1974582,160.015899 45.1257143,163.949476 45.1257143,168.660373 L45.1257143,199.563565 C45.1257143,204.274462 44.1974582,208.208039 42.4543872,211.467299 C40.7113163,214.726558 38.1534306,217.284444 34.8941713,219.027515 C31.6349121,220.770586 27.7013346,221.698842 22.9904376,221.698842 L22.560991,221.698842 C17.850094,221.698842 13.9165165,220.770586 10.6572573,219.027515 C7.39799799,217.284444 4.84011225,214.726558 3.09704132,211.467299 C1.3539704,208.208039 0.425714286,204.274462 0.425714286,199.563565 L0.425714286,168.660373 C0.425714286,163.949476 1.3539704,160.015899 3.09704132,156.756639 C4.84011225,153.49738 7.39799799,150.939494 10.6572573,149.196424 C13.9165165,147.453353 17.850094,146.525097 22.560991,146.525097 Z" id="Rectangle-2-Copy-6" fill="#8AB8F1"/><path d="M22.560991,89.6138996 L22.9904376,89.6138996 C27.7013346,89.6138996 31.6349121,90.5421557 34.8941713,92.2852267 C38.1534306,94.0282976 40.7113163,96.5861833 42.4543872,99.8454426 C44.1974582,103.104702 45.1257143,107.038279 45.1257143,111.749176 L45.1257143,114.62148 C45.1257143,119.332377 44.1974582,123.265955 42.4543872,126.525214 C40.7113163,129.784473 38.1534306,132.342359 34.8941713,134.08543 C31.6349121,135.828501 27.7013346,136.756757 22.9904376,136.756757 L22.560991,136.756757 C17.850094,136.756757 13.9165165,135.828501 10.6572573,134.08543 C7.39799799,132.342359 4.84011225,129.784473 3.09704132,126.525214 C1.3539704,123.265955 0.425714286,119.332377 0.425714286,114.62148 L0.425714286,111.749176 C0.425714286,107.038279 1.3539704,103.104702 3.09704132,99.8454426 C4.84011225,96.5861833 7.39799799,94.0282976 10.6572573,92.2852267 C13.9165165,90.5421557 17.850094,89.6138996 22.560991,89.6138996 Z" id="Rectangle-2-Copy-3" fill="#B8DBE9"/><path d="M126.435277,282.857143 L126.864723,282.857143 C131.57562,282.857143 135.509198,283.785399 138.768457,285.52847 C142.027716,287.271541 144.585602,289.829427 146.328673,293.088686 C148.071744,296.347945 149,300.281523 149,304.99242 L149,307.864723 C149,312.57562 148.071744,316.509198 146.328673,319.768457 C144.585602,323.027716 142.027716,325.585602 138.768457,327.328673 C135.509198,329.071744 131.57562,330 126.864723,330 L126.435277,330 C121.72438,330 117.790802,329.071744 114.531543,327.328673 C111.272284,325.585602 108.714398,323.027716 106.971327,319.768457 C105.228256,316.509198 104.3,312.57562 104.3,307.864723 L104.3,304.99242 C104.3,300.281523 105.228256,296.347945 106.971327,293.088686 C108.714398,289.829427 111.272284,287.271541 114.531543,285.52847 C117.790802,283.785399 121.72438,282.857143 126.435277,282.857143 Z" id="Rectangle-2-Copy-12" fill="#8AB8F1"/><path d="M2.54826255,0 L16.6088803,0 C18.0162469,-1.59079667e-15 19.1571429,1.140896 19.1571429,2.54826255 C19.1571429,3.95562909 18.0162469,5.0965251 16.6088803,5.0965251 L2.54826255,5.0965251 C1.140896,5.0965251 1.72352693e-16,3.95562909 0,2.54826255 C-1.72352693e-16,1.140896 1.140896,7.0261825e-16 2.54826255,0 Z" id="Rectangle" fill="#B8DBE9"/><path d="M31.0711197,0 L45.1317375,0 C46.539104,-1.59079667e-15 47.68,1.140896 47.68,2.54826255 C47.68,3.95562909 46.539104,5.0965251 45.1317375,5.0965251 L31.0711197,5.0965251 C29.6637531,5.0965251 28.5228571,3.95562909 28.5228571,2.54826255 C28.5228571,1.140896 29.6637531,7.0261825e-16 31.0711197,0 Z" id="Rectangle-Copy" fill="#B8DBE9" opacity=".3"/><path d="M59.1682625,0 L73.2288803,0 C74.6362469,-1.59079667e-15 75.7771429,1.140896 75.7771429,2.54826255 C75.7771429,3.95562909 74.6362469,5.0965251 73.2288803,5.0965251 L59.1682625,5.0965251 C57.760896,5.0965251 56.62,3.95562909 56.62,2.54826255 C56.62,1.140896 57.760896,7.0261825e-16 59.1682625,0 Z" id="Rectangle-Copy-2" fill="#B8DBE9" opacity=".3"/><path d="M87.6911197,0 L101.751737,0 C103.159104,-1.59079667e-15 104.3,1.140896 104.3,2.54826255 C104.3,3.95562909 103.159104,5.0965251 101.751737,5.0965251 L87.6911197,5.0965251 C86.2837531,5.0965251 85.1428571,3.95562909 85.1428571,2.54826255 C85.1428571,1.140896 86.2837531,7.0261825e-16 87.6911197,0 Z" id="Rectangle-Copy-3" fill="#B8DBE9" opacity=".3"/><path d="M115.788263,0 L129.84888,0 C131.256247,-1.59079667e-15 132.397143,1.140896 132.397143,2.54826255 C132.397143,3.95562909 131.256247,5.0965251 129.84888,5.0965251 L115.788263,5.0965251 C114.380896,5.0965251 113.24,3.95562909 113.24,2.54826255 C113.24,1.140896 114.380896,2.5852904e-16 115.788263,0 Z" id="Rectangle-Copy-4" fill="#B8DBE9" opacity=".3"/></g></g></g><g id="Profile"><g id="Group-6"><path d="M74.4240688,0 C87.4225414,-2.38778068e-15 97.9598854,10.537344 97.9598854,23.5358166 L97.9598854,23.679507 C97.9598854,36.6779796 87.4225414,47.2153236 74.4240688,47.2153236 C61.4255962,47.2153236 50.8882521,36.6779796 50.8882521,23.679507 L50.8882521,23.5358166 C50.8882521,10.537344 61.4255962,2.38778068e-15 74.4240688,0 Z" id="Rectangle" fill="#B8DBE9"/><path d="M72.7530258,17.941823 C72.0508347,17.941823 71.4820917,18.5052592 71.4820917,19.2008983 L71.4820917,19.8304359 L69.5756905,19.8304359 C68.8734995,19.8304359 68.3047564,20.3938721 68.3047564,21.0895112 L68.3047564,28.0144254 C68.3047564,28.7100645 68.8734995,29.2735007 69.5756905,29.2735007 L79.7431633,29.2735007 C80.4453544,29.2735007 81.0140974,28.7100645 81.0140974,28.0144254 L81.0140974,21.0895112 C81.0140974,20.3938721 80.4453544,19.8304359 79.7431633,19.8304359 L77.8367622,19.8304359 L77.8367622,19.2008983 C77.8367622,18.5052592 77.2680192,17.941823 76.5658281,17.941823 L72.7530258,17.941823 Z M74.8947851,21.2468956 C76.711656,21.2468956 78.1897994,22.6236473 78.1897994,24.3158917 C78.1897994,26.0081361 76.711656,27.3848877 74.8947851,27.3848877 C73.0779142,27.3848877 71.5997708,26.0081361 71.5997708,24.3158917 C71.5997708,22.6236473 73.0779142,21.2468956 74.8947851,21.2468956 Z M78.8958739,21.2468956 C79.285627,21.2468956 79.6019484,21.5641826 79.6019484,21.9551255 C79.6019484,22.3460684 79.285627,22.6633554 78.8958739,22.6633554 C78.5061208,22.6633554 78.1897994,22.3460684 78.1897994,21.9551255 C78.1897994,21.5641826 78.5061208,21.2468956 78.8958739,21.2468956 Z M74.8947851,22.1912021 C73.8549073,22.1912021 73.0119198,23.0367629 73.0119198,24.0798151 C73.0119198,25.1228672 73.8549073,25.968428 74.8947851,25.968428 C75.9346629,25.968428 76.7776504,25.1228672 76.7776504,24.0798151 C76.7776504,23.0367629 75.9346629,22.1912021 74.8947851,22.1912021 Z" id="Shape" fill="#70A2DE" fill-rule="nonzero"/><path d="M39.2334808,61.2523118 L53.3195278,61.2523118 C54.6115968,61.2523118 55.6590258,62.2997407 55.6590258,63.5918098 C55.6590258,64.8838789 54.6115968,65.9313078 53.3195278,65.9313078 L39.2334808,65.9313078 C37.9414117,65.9313078 36.8939828,64.8838789 36.8939828,63.5918098 C36.8939828,62.2997407 37.9414117,61.2523118 39.2334808,61.2523118 Z" id="Rectangle" fill="#8AB8F1"/><path d="M67.3810453,61.2523118 L81.4670922,61.2523118 C82.7591613,61.2523118 83.8065903,62.2997407 83.8065903,63.5918098 C83.8065903,64.8838789 82.7591613,65.9313078 81.4670922,65.9313078 L67.3810453,65.9313078 C66.0889762,65.9313078 65.0415473,64.8838789 65.0415473,63.5918098 C65.0415473,62.2997407 66.0889762,61.2523118 67.3810453,61.2523118 Z" id="Rectangle-Copy" fill="#B8DBE9" opacity=".3"/><path d="M95.5286098,61.2523118 L109.614657,61.2523118 C110.906726,61.2523118 111.954155,62.2997407 111.954155,63.5918098 C111.954155,64.8838789 110.906726,65.9313078 109.614657,65.9313078 L95.5286098,65.9313078 C94.2365407,65.9313078 93.1891117,64.8838789 93.1891117,63.5918098 C93.1891117,62.2997407 94.2365407,61.2523118 95.5286098,61.2523118 Z" id="Rectangle-Copy-2" fill="#B8DBE9" opacity=".3"/><path d="M136.264842,113.146631 L145.63992,113.146631 C146.943356,113.146631 148,114.203275 148,115.506712 C148,116.810148 146.943356,117.866792 145.63992,117.866792 L136.264842,117.866792 C134.961406,117.866792 133.904762,116.810148 133.904762,115.506712 C133.904762,114.203275 134.961406,113.146631 136.264842,113.146631 Z" id="Rectangle" fill="#B8DBE9"/><path d="M131.566429,127.307112 L145.63992,127.307112 C146.943356,127.307112 148,128.363756 148,129.667192 C148,130.970628 146.943356,132.027272 145.63992,132.027272 L131.566429,132.027272 C130.262993,132.027272 129.206349,130.970628 129.206349,129.667192 C129.206349,128.363756 130.262993,127.307112 131.566429,127.307112 Z" id="Rectangle" fill="#B8DBE9"/><path d="M140.963255,141.467593 L145.63992,141.467593 C146.943356,141.467593 148,142.524237 148,143.827673 C148,145.131109 146.943356,146.187753 145.63992,146.187753 L140.963255,146.187753 C139.659818,146.187753 138.603175,145.131109 138.603175,143.827673 C138.603175,142.524237 139.659818,141.467593 140.963255,141.467593 Z" id="Rectangle" fill="#B8DBE9"/><path d="M145.650794,155.628073 C146.948224,155.628073 148,156.679849 148,157.97728 L148,157.999027 C148,159.296458 146.948224,160.348234 145.650794,160.348234 C144.353363,160.348234 143.301587,159.296458 143.301587,157.999027 L143.301587,157.97728 C143.301587,156.679849 144.353363,155.628073 145.650794,155.628073 Z" id="Rectangle" fill="#B8DBE9"/><path d="M136.264842,169.788554 L145.63992,169.788554 C146.943356,169.788554 148,170.845198 148,172.148634 C148,173.452071 146.943356,174.508714 145.63992,174.508714 L136.264842,174.508714 C134.961406,174.508714 133.904762,173.452071 133.904762,172.148634 C133.904762,170.845198 134.961406,169.788554 136.264842,169.788554 Z" id="Rectangle" fill="#B8DBE9"/><path d="M140.963255,183.949035 L145.63992,183.949035 C146.943356,183.949035 148,185.005679 148,186.309115 C148,187.612551 146.943356,188.669195 145.63992,188.669195 L140.963255,188.669195 C139.659818,188.669195 138.603175,187.612551 138.603175,186.309115 C138.603175,185.005679 139.659818,183.949035 140.963255,183.949035 Z" id="Rectangle" fill="#B8DBE9"/><path d="M145.650794,198.109515 C146.948224,198.109515 148,199.161291 148,200.458722 L148,200.480469 C148,201.7779 146.948224,202.829676 145.650794,202.829676 C144.353363,202.829676 143.301587,201.7779 143.301587,200.480469 L143.301587,200.458722 C143.301587,199.161291 144.353363,198.109515 145.650794,198.109515 Z" id="Rectangle" fill="#8AB8F1"/><path d="M2.36008011,254.751438 L82.2113485,254.751438 C83.5147847,254.751438 84.5714286,255.808082 84.5714286,257.111518 C84.5714286,258.414955 83.5147847,259.471598 82.2113485,259.471598 L2.36008011,259.471598 C1.05664386,259.471598 1.59624904e-16,258.414955 0,257.111518 C-1.59624904e-16,255.808082 1.05664386,254.751438 2.36008011,254.751438 Z" id="Rectangle" fill="#B8DBE9"/><path d="M140.963255,212.269996 L145.63992,212.269996 C146.943356,212.269996 148,213.32664 148,214.630076 C148,215.933513 146.943356,216.990156 145.63992,216.990156 L140.963255,216.990156 C139.659818,216.990156 138.603175,215.933513 138.603175,214.630076 C138.603175,213.32664 139.659818,212.269996 140.963255,212.269996 Z" id="Rectangle" fill="#8AB8F1"/><path d="M136.264842,226.430477 L145.63992,226.430477 C146.943356,226.430477 148,227.487121 148,228.790557 C148,230.093993 146.943356,231.150637 145.63992,231.150637 L136.264842,231.150637 C134.961406,231.150637 133.904762,230.093993 133.904762,228.790557 C133.904762,227.487121 134.961406,226.430477 136.264842,226.430477 Z" id="Rectangle" fill="#B8DBE9"/><path d="M2.36008011,240.590958 L35.2272215,240.590958 C36.5306577,240.590958 37.5873016,241.647601 37.5873016,242.951038 C37.5873016,244.254474 36.5306577,245.311118 35.2272215,245.311118 L2.36008011,245.311118 C1.05664386,245.311118 1.59624904e-16,244.254474 0,242.951038 C-1.59624904e-16,241.647601 1.05664386,240.590958 2.36008011,240.590958 Z" id="Rectangle" fill="#BAEBFF"/><path d="M2.36008011,226.430477 L21.1319834,226.430477 C22.4354196,226.430477 23.4920635,227.487121 23.4920635,228.790557 C23.4920635,230.093993 22.4354196,231.150637 21.1319834,231.150637 L2.36008011,231.150637 C1.05664386,231.150637 1.59624904e-16,230.093993 0,228.790557 C-1.59624904e-16,227.487121 1.05664386,226.430477 2.36008011,226.430477 Z" id="Rectangle" fill="#8AB8F1"/><path d="M2.36008011,212.269996 L16.4335707,212.269996 C17.7370069,212.269996 18.7936508,213.32664 18.7936508,214.630076 C18.7936508,215.933513 17.7370069,216.990156 16.4335707,216.990156 L2.36008011,216.990156 C1.05664386,216.990156 1.59624904e-16,215.933513 0,214.630076 C-1.59624904e-16,213.32664 1.05664386,212.269996 2.36008011,212.269996 Z" id="Rectangle" fill="#B8DBE9"/><path d="M2.36008011,141.467593 L35.2272215,141.467593 C36.5306577,141.467593 37.5873016,142.524237 37.5873016,143.827673 C37.5873016,145.131109 36.5306577,146.187753 35.2272215,146.187753 L2.36008011,146.187753 C1.05664386,146.187753 1.59624904e-16,145.131109 0,143.827673 C-1.59624904e-16,142.524237 1.05664386,141.467593 2.36008011,141.467593 Z" id="Rectangle" fill="#B8DBE9"/><path d="M2.36008011,127.307112 L54.0208723,127.307112 C55.3243085,127.307112 56.3809524,128.363756 56.3809524,129.667192 C56.3809524,130.970628 55.3243085,132.027272 54.0208723,132.027272 L2.36008011,132.027272 C1.05664386,132.027272 1.59624904e-16,130.970628 0,129.667192 C-1.59624904e-16,128.363756 1.05664386,127.307112 2.36008011,127.307112 Z" id="Rectangle" fill="#BAEBFF"/><path d="M2.36008011,113.146631 L21.1319834,113.146631 C22.4354196,113.146631 23.4920635,114.203275 23.4920635,115.506712 C23.4920635,116.810148 22.4354196,117.866792 21.1319834,117.866792 L2.36008011,117.866792 C1.05664386,117.866792 1.59624904e-16,116.810148 0,115.506712 C-1.59624904e-16,114.203275 1.05664386,113.146631 2.36008011,113.146631 Z" id="Rectangle" fill="#B8DBE9"/><path d="M9.35799207,85.0726552 L138.642008,85.0726552 C143.810284,85.0726552 148,89.262371 148,94.4306473 C148,99.5989236 143.810284,103.788639 138.642008,103.788639 L9.35799207,103.788639 C4.18971576,103.788639 6.32931304e-16,99.5989236 0,94.4306473 C-6.32931304e-16,89.262371 4.18971576,85.0726552 9.35799207,85.0726552 Z" id="Rectangle-2" fill="#8AB8F1"/><rect id="Rectangle-2" fill="#B8DBE9" x="0" y="298.18" width="68.275" height="23.82" rx="11.91"/></g><g id="Group-3" transform="translate(0.000000, 113.146631)"/></g></g><g id="Character" transform="translate(40.000000, 41.000000)"><g id="Head/Front" transform="translate(119.500000, 81.500000) rotate(-27.000000) translate(-119.500000, -81.500000) translate(46.000000, 28.000000) scale(1.0808823529411764 1.0288461538461537)"><g id="Head/Front/Short Beard" stroke="none" stroke-width="1" fill="none" fill-rule="evenodd"><g id="Head" transform="translate(54.000000, 31.000000)" fill="#57331f"><path d="M38.1433414,9.13393292 C43.9381521,19.9350547 43.249578,47.3329958 35.7603014,49.2634576 C32.773664,50.0333035 26.4113241,48.1475566 19.935865,44.2446031 L24,73 L0,73 L8.26160177,34.4893378 C3.65406109,29.0807313 0.535660132,22.452516 1.05677633,15.0254539 C2.55833022,-6.37502057 32.3485306,-1.66718886 38.1433414,9.13393292 Z" id="SKIN"/></g><path d="M79.1320584,29.6205713 C85.8659611,30.1981637 91.8790132,32.2515132 93.5831606,33.4709469 C93.5831606,39.8461712 92.3478701,41.7376815 81.7968056,41.5709519 C79.2045191,42.9399877 77.211635,45.2973585 75.1359806,48.3879237 C76.0537047,61.185356 78.4839205,67.5846937 82.4257914,67.5846937 C88.3385979,67.5846937 93.355194,63.8310443 95.9495915,63.8310443 C97.8408192,63.8310443 97.4185661,66.1977405 96.1649615,67.9524776 C95.1306973,69.4001921 90.0939174,70.7956158 90.0939174,73.0400595 C90.0939174,75.2845031 94.0733913,73.5481008 94.0733913,74.8792364 C94.0733913,77.0810973 94.7727779,81.2209894 90.9512241,81.2209894 C87.0836843,81.2209894 75.9947625,79.8115837 74.0944216,74.0714721 C72.8680535,70.367142 72.0750985,62.6912593 71.7155566,51.0438241 C71.4812891,51.0143652 71.2423222,51 71,51 C67.6862915,51 65,53.6862915 65,57 C65,58.6822183 65.6922919,60.2027431 66.807515,61.292214 C65.4191964,63.2518162 63.8632894,65.2988831 62.0803863,67.4111902 C55.3824054,63.3926741 49.4121226,50.6289713 55.9604861,39.3282783 C57.7704744,33.7922446 62.8680346,31.8352408 67.7073518,30.4622091 C71.6274481,28.8224203 75.6968791,28.6375327 79.1320584,29.6205713 Z" id="Hair" fill="#4a312c"/></g></g><g id="Bottom/Standing" transform="translate(4.000000, 211.000000) scale(1.08 1.0376569037656904)"><g id="Bottom/Standing/Skinny Jeans Walk" stroke="none" stroke-width="1" fill="none" fill-rule="evenodd"><polygon id="Leg" fill="#1820bf" points="128 0 176.081639 127.226909 209.783329 221 229 221 182.673688 9.81437154e-14"/><path d="M116.116628,0 C115.593979,43.6541888 115.971833,102.427468 114.754071,105.148648 C113.942229,106.962768 88.6908725,127.632305 39,167.157257 L48.9049803,184 C107.899481,145.955797 138.9048,124.399339 141.920937,119.330628 C146.445143,111.72756 169.1744,41.763137 181,0 L116.116628,0 Z" id="Leg" fill="#2b44ff"/><path d="M18.7225778,205.606482 L19.7225778,184.606482 L40.7225778,184.606482 C50.6801811,191.606482 63.6801811,197.273149 79.7225778,201.606482 L79.7225778,205.606482 L41.7225778,205.606482 L28.7225778,203.606482 L28.7225778,205.606482 L18.7225778,205.606482 Z" id="Shoe" fill="#191847" transform="translate(49.222578, 195.106482) rotate(50.000000) translate(-49.222578, -195.106482)"/><path d="M208,239 L209,218 L230,218 C239.957603,225 252.957603,230.666667 269,235 L269,239 L231,239 L218,237 L218,239 L208,239 Z" id="Shoe" fill="#191847"/></g></g><g id="Body" transform="translate(158.500000, 204.500000) rotate(-14.000000) translate(-158.500000, -204.500000) translate(20.000000, 108.000000) scale(1.08203125 1.032085561497326)"><g id="Body/Trench Coat" stroke="none" stroke-width="1" fill="none" fill-rule="evenodd"><path d="M54.3748075,70.4422362 L71.7206892,74.8517457 C48.5010655,113.888004 36.0840272,134.518222 34.4695742,136.742401 C30.8370549,141.746803 33.4753713,151.405575 34.3717289,156.466114 C27.0159775,157.777312 30.4552622,146.986888 21.1392043,148.78923 C12.6359386,150.434324 5.23841582,155.412199 -2.21044035,147.785504 C-3.12623345,146.847846 -3.68533756,144.037711 -0.329858103,142.787288 C8.0298649,139.672029 20.4540206,133.669529 22.5472206,131.196025 C25.4016727,127.82296 36.0108683,107.571697 54.3748075,70.4422362 L54.3748075,70.4422362 Z M197.692975,90.2442388 L227.879596,115.83589 C236.347145,118.768177 243.354953,122.169788 248.90302,126.040723 C250.183668,127.382731 251.660283,130.022417 246.018183,129.189525 C240.376083,128.356632 234.403982,127.734299 233.485976,129.614404 C232.56797,131.49451 235.838922,134.048404 234.074175,136.548369 C232.897677,138.215012 228.219551,133.502554 220.039797,122.410996 L189.442799,107.140857 L197.692975,90.2442388 Z" id="SKIN" fill="#57331f" transform="translate(123.586250, 113.509597) rotate(-4.000000) translate(-123.586250, -113.509597)"/><path d="M138.264162,2.04144427 C153.1728,32.8586321 173.34952,62.4239679 203.321564,87.6788376 C207.426219,87.3835185 211.889688,88.0634542 216.675075,89.6758318 C219.030261,90.4693828 220.296216,93.0219384 219.502665,95.3771242 C219.041858,96.7447568 217.987913,97.7450999 216.723906,98.188165 C217.638754,98.8563073 218.562849,99.520867 219.495159,100.181671 L211.447983,116.609623 C177.58505,99.7255288 145.757134,86.9958405 131.253857,59.1215578 C126.386182,49.766228 128.033751,17.9882599 127.569134,6.42756866 L138.264162,2.04144427 Z" id="Back-Arm" fill="#28aa4d"/><path d="M90,113.909745 C121.438326,117.363418 146.183737,117.363418 164.236234,113.909745 C166.472817,113.481858 166.374598,103.840401 165.337385,101.207228 C149.185283,60.2018743 138.560302,30.1840325 138.560302,1.70263734 C135.596594,3.25072994 130.409827,3.48273097 123,2.39864042 C103.086202,31.7496339 93.9325378,65.4265407 90,113.909745 Z" id="Shirt" fill="#191847"/><path d="M126.348425,-1.0658141e-14 C123,44.2807404 169.249642,140.9549 153.190593,223.518112 C123.507857,230.146789 81.1319105,209.522766 39.8828129,226 C41.4177174,192.750378 72.1641281,153.689543 84.1591577,118.756122 C83.0907846,117.752921 82.5343434,116.247171 82.8078928,114.695795 L83.3288374,111.741372 C83.6816959,109.740212 85.3063314,108.28273 87.2249777,108.053567 C87.5631559,106.554137 87.8526566,105.063334 88.0917371,103.583451 C90.1104671,91.0877276 86.6615358,78.8352569 86.8232868,66.8032625 C70.7430616,80.5217718 56.3180199,104.211352 43.5479488,137.871041 L43.5479488,137.871041 L24.6611622,132.313477 C25.3819892,129.635524 26.1286459,126.990471 26.9011324,124.378317 C24.72195,123.144957 22.1728798,117.466228 24.0066041,116.516161 C25.8996562,115.535355 27.905105,114.844989 30.0170446,114.438594 C47.3349841,62.2796711 75.6543384,24.1331607 114.975674,-4.19220214e-13 L114.975674,-4.19220214e-13 Z" id="Coat-Front" fill="#43d26c"/><polygon id="Shade-Lapel" fill-opacity=".1" fill="#000" points="119.105759 1 113.946604 16.8654451 124.335997 28.7590435 114.946604 38.1055065 137.662251 77 109.883587 38.1832119 119.105759 28.7590435 109.883587 18.2484583"/><path d="M137,130 C139.209139,130 141,131.790861 141,134 C141,136.209139 139.209139,138 137,138 C134.790861,138 133,136.209139 133,134 C133,131.790861 134.790861,130 137,130 Z M136,107 C138.209139,107 140,108.790861 140,111 C140,113.209139 138.209139,115 136,115 C133.790861,115 132,113.209139 132,111 C132,108.790861 133.790861,107 136,107 Z M131,84 C133.209139,84 135,85.790861 135,88 C135,90.209139 133.209139,92 131,92 C128.790861,92 127,90.209139 127,88 C127,85.790861 128.790861,84 131,84 Z" id="Buttons" fill-opacity=".4" fill="#000"/></g></g></g><g id="Foreground" transform="translate(39.000000, 218.000000)"><path d="M250,108 C254.548565,108 258.509198,108.928256 261.768457,110.671327 C265.027716,112.414398 267.585602,114.972284 269.328673,118.231543 C271.071744,121.490802 272,125.451435 272,130 L272,147 C272,151.548565 271.071744,155.509198 269.328673,158.768457 C267.585602,162.027716 265.027716,164.585602 261.768457,166.328673 C258.509198,168.071744 254.548565,169 250,169 C245.451435,169 241.490802,168.071744 238.231543,166.328673 C234.972284,164.585602 232.414398,162.027716 230.671327,158.768457 C228.928256,155.509198 228,151.548565 228,147 L228,130 C228,125.451435 228.928256,121.490802 230.671327,118.231543 C232.414398,114.972284 234.972284,112.414398 238.231543,110.671327 C241.490802,108.928256 245.451435,108 250,108 Z" id="Rectangle-2-Copy-7" fill="#B8DBE9" opacity=".906"/><path d="M250,179 C254.548565,179 258.509198,179.928256 261.768457,181.671327 C265.027716,183.414398 267.585602,185.972284 269.328673,189.231543 C271.071744,192.490802 272,196.451435 272,201 L272,218 C272,222.548565 271.071744,226.509198 269.328673,229.768457 C267.585602,233.027716 265.027716,235.585602 261.768457,237.328673 C258.509198,239.071744 254.548565,240 250,240 C245.451435,240 241.490802,239.071744 238.231543,237.328673 C234.972284,235.585602 232.414398,233.027716 230.671327,229.768457 C228.928256,226.509198 228,222.548565 228,218 L228,201 C228,196.451435 228.928256,192.490802 230.671327,189.231543 C232.414398,185.972284 234.972284,183.414398 238.231543,181.671327 C241.490802,179.928256 245.451435,179 250,179 Z" id="Rectangle-2-Copy-10" fill="#6DD2FC" opacity=".866"/><path d="M302,160 C306.548565,160 310.509198,160.928256 313.768457,162.671327 C317.027716,164.414398 319.585602,166.972284 321.328673,170.231543 C323.071744,173.490802 324,177.451435 324,182 L324,185 C324,189.548565 323.071744,193.509198 321.328673,196.768457 C319.585602,200.027716 317.027716,202.585602 313.768457,204.328673 C310.509198,206.071744 306.548565,207 302,207 C297.451435,207 293.490802,206.071744 290.231543,204.328673 C286.972284,202.585602 284.414398,200.027716 282.671327,196.768457 C280.928256,193.509198 280,189.548565 280,185 L280,182 C280,177.451435 280.928256,173.490802 282.671327,170.231543 C284.414398,166.972284 286.972284,164.414398 290.231543,162.671327 C293.490802,160.928256 297.451435,160 302,160 Z" id="Rectangle-2-Copy-11" fill="#BAEBFF"/><path d="M145.5,99 C146.880712,99 148,100.119288 148,101.5 C148,102.880712 146.880712,104 145.5,104 C144.119288,104 143,102.880712 143,101.5 C143,100.119288 144.119288,99 145.5,99 Z" id="Rectangle" fill="#B8DBE9"/><path d="M136.5,85 L145.5,85 C146.880712,85 148,86.1192881 148,87.5 C148,88.8807119 146.880712,90 145.5,90 L136.5,90 C135.119288,90 134,88.8807119 134,87.5 C134,86.1192881 135.119288,85 136.5,85 Z" id="Rectangle" fill="#B8DBE9"/><path d="M2.5,43 L81.5,43 C82.8807119,43 84,44.1192881 84,45.5 C84,46.8807119 82.8807119,48 81.5,48 L2.5,48 C1.11928813,48 1.69088438e-16,46.8807119 0,45.5 C-1.69088438e-16,44.1192881 1.11928813,43 2.5,43 Z" id="Rectangle" fill="#B8DBE9" opacity=".89"/><path d="M2.5,29 L30.5,29 C31.8807119,29 33,30.1192881 33,31.5 C33,32.8807119 31.8807119,34 30.5,34 L2.5,34 C1.11928813,34 1.69088438e-16,32.8807119 0,31.5 C-1.69088438e-16,30.1192881 1.11928813,29 2.5,29 Z" id="Rectangle" fill="#B8DBE9"/><path d="M2.5,14 L16.5,14 C17.8807119,14 19,15.1192881 19,16.5 C19,17.8807119 17.8807119,19 16.5,19 L2.5,19 C1.11928813,19 1.69088438e-16,17.8807119 0,16.5 C-1.69088438e-16,15.1192881 1.11928813,14 2.5,14 Z" id="Rectangle" fill="#B8DBE9"/><path d="M2.5,0 L67.5,0 C68.8807119,-2.53632657e-16 70,1.11928813 70,2.5 C70,3.88071187 68.8807119,5 67.5,5 L2.5,5 C1.11928813,5 1.69088438e-16,3.88071187 0,2.5 C-1.69088438e-16,1.11928813 1.11928813,2.53632657e-16 2.5,0 Z" id="Rectangle" fill="#8AB8F1" opacity=".89"/><rect id="Rectangle-2" fill="#77D6FE" opacity=".908" x="80" y="143" width="68" height="24" rx="12"/></g></g></svg>