<svg viewBox="130.9999999999999 78.46153846153845 786.0000000000001 562.3076923076924" xmlns="http://www.w3.org/2000/svg" overflow="visible" xmlns:xlink="http://www.w3.org/1999/xlink" width="786.0000000000001px" height="562.3076923076924px"><g id="Master/Scene/1 Character" stroke="none" stroke-width="1" fill="none" fill-rule="evenodd"><g id="Background" transform="translate(-3.000000, 0.000000) scale(1 1)"><g id="Background/Wireframe 2" stroke="none" stroke-width="1" fill="none" fill-rule="evenodd"><g id="Mobile3" transform="translate(723.000000, 91.000000)"><rect id="Container" fill="#C7D1D9" x="0" y="0" width="147" height="280" rx="8"/><circle id="Touch" fill="#FFF" cx="73" cy="248" r="15"/><g id="Camera" transform="translate(58.000000, 15.000000)" fill="#FFF"><circle id="Lens" cx="2" cy="2" r="2"/><rect id="Sensor" x="9" y="0" width="21" height="4" rx="2"/></g><g id="Rows" transform="translate(14.000000, 28.000000)"><g id="Row"><rect id="Container" fill="#FFF" x="0" y="0" width="119" height="50.765" rx="4"/><g id="Text-Stuff" transform="translate(9.000000, 15.228000)" fill="#C7D1D9"><rect id="Label" x="0" y="0" width="61" height="7.614" rx="3"/><rect id="Label" x="0" y="12.69" width="40.945" height="7.614" rx="3"/></g><g id="Check" transform="translate(99.282443, 18.380000)"><circle id="Background" fill="#C7D1D9" cx="7" cy="7" r="7"/><circle id="Indicator" fill="#F2F2F2" cx="7" cy="7" r="3"/></g></g><g id="Row" transform="translate(0.000000, 59.000000)"><rect id="Background" fill="#FFF" x="0" y="0" width="119" height="37.706" rx="4"/><g id="Text" transform="translate(39.000000, 11.314027)" fill="#C7D1D9"><rect id="Name" x="0" y="0" width="61" height="5.657" rx="2.829"/><rect id="Name" x="0" y="9.428" width="40.945" height="5.657" rx="2.829"/></g><circle id="Avatar" fill="#C5CFD6" cx="21" cy="18.857" r="12"/></g><g id="Row" transform="translate(0.000000, 105.000000)"><rect id="Container" fill="#FFF" x="0" y="0" width="119" height="37.706" rx="4"/><g id="Text-Stuff" transform="translate(9.000000, 11.314027)" fill="#C7D1D9"><rect id="Label" x="0" y="0" width="61" height="5.657" rx="2.829"/><rect id="Label" x="0" y="9.428" width="40.945" height="5.657" rx="2.829"/></g><g id="Check" transform="translate(99.282443, 11.856712)"><circle id="Background" fill="#C7D1D9" cx="7" cy="7" r="7"/><circle id="Indicator" fill="#F2F2F2" cx="7" cy="7" r="3"/></g></g><g id="Row" transform="translate(0.000000, 151.000000)"><rect id="Background" fill="#FFF" x="0" y="0" width="119" height="37.706" rx="4"/><g id="Text" transform="translate(39.000000, 11.314027)" fill="#C7D1D9"><rect id="Name" x="0" y="0" width="61" height="5.657" rx="2.829"/><rect id="Name" x="0" y="9.428" width="40.945" height="5.657" rx="2.829"/></g><circle id="Avatar" fill="#C5CFD6" cx="21" cy="18.857" r="12"/></g></g></g><g id="Mobile3" transform="translate(219.000000, 114.000000)"><rect id="Container" fill="#F2F2F2" x="0" y="0" width="159" height="302" rx="8"/><circle id="Touch" fill="#FFF" cx="79" cy="268" r="15"/><g id="Camera" transform="translate(64.000000, 16.000000)" fill="#FFF"><circle id="Lens" cx="2" cy="2" r="2"/><rect id="Sensor" x="9" y="0" width="21" height="4" rx="2"/></g><g id="Rows" transform="translate(14.000000, 28.000000)"><g id="Row"><rect id="Background" fill="#FFF" x="0" y="0" width="131" height="54" rx="4"/><g id="Text" transform="translate(39.000000, 16.200000)" fill="#C7D1D9"><rect id="Name" x="0" y="0" width="73" height="8.1" rx="3"/><rect id="Name" x="0" y="13.5" width="49" height="8.1" rx="3"/></g><circle id="Avatar" fill="#C5CFD6" cx="21" cy="27" r="12"/></g><g id="Row" transform="translate(0.000000, 62.000000)"><rect id="Background" fill="#FFF" x="0" y="0" width="131" height="42" rx="4"/><g id="Text" transform="translate(39.000000, 12.600000)" fill="#C7D1D9"><rect id="Name" x="0" y="0" width="73" height="6.3" rx="3"/><rect id="Name" x="0" y="10.5" width="49" height="6.3" rx="3"/></g><circle id="Avatar" fill="#C5CFD6" cx="21" cy="21" r="12"/></g><g id="Row" transform="translate(0.000000, 112.000000)"><rect id="Background" fill="#FFF" x="0" y="0" width="131" height="42" rx="4"/><g id="Text" transform="translate(39.000000, 12.600000)" fill="#C7D1D9"><rect id="Name" x="0" y="0" width="73" height="6.3" rx="3"/><rect id="Name" x="0" y="10.5" width="49" height="6.3" rx="3"/></g><circle id="Avatar" fill="#AFB9C5" cx="21" cy="21" r="12"/></g><g id="Row" transform="translate(0.000000, 162.000000)"><rect id="Background" fill="#FFF" x="0" y="0" width="131" height="42" rx="4"/><g id="Text" transform="translate(39.000000, 12.600000)" fill="#C7D1D9"><rect id="Name" x="0" y="0" width="73" height="6.3" rx="3"/><rect id="Name" x="0" y="10.5" width="49" height="6.3" rx="3"/></g><circle id="Avatar" fill="#C5CFD6" cx="21" cy="21" r="12"/></g></g></g><g id="Web" transform="translate(384.000000, 191.000000)"><rect id="Container" fill="#F2F2F2" x="0" y="0" width="335" height="346" rx="8"/><rect id="Background" fill="#FFF" x="249" y="43" width="70" height="81" rx="8"/><g id="Profile-Info" transform="translate(259.000000, 58.000000)" fill="#C7D1D9"><circle id="Avatar" cx="25" cy="16" r="16"/><rect id="Name" x="0" y="36" width="50" height="6" rx="3"/><rect id="Name" x="8" y="46" width="34" height="6" rx="3"/></g><path d="M8,0 L327,0 C331.418278,-8.11624501e-16 335,3.581722 335,8 L335,27 L335,27 L0,27 L0,8 C-5.41083001e-16,3.581722 3.581722,8.11624501e-16 8,0 Z" id="Header" fill="#C5CFD6"/><g id="Buttons" transform="translate(9.000000, 10.000000)" fill="#F2F2F2"><circle id="buttons" cx="4" cy="4" r="4"/><circle id="buttons" cx="16" cy="4" r="4"/><circle id="buttons" cx="28" cy="4" r="4"/></g><g id="Components" transform="translate(249.000000, 132.000000)"><rect id="Background" fill="#FFF" x="0" y="0" width="70" height="194" rx="8"/><g id="Rows" transform="translate(18.000000, 18.000000)"><rect id="Data" fill="#C7D1D9" x="0" y="0" width="34" height="26" rx="4"/><rect id="Data" fill="#AFB9C5" x="0" y="34" width="34" height="25" rx="4"/><rect id="Data" fill="#C7D1D9" x="0" y="67" width="34" height="25" rx="4"/><rect id="Data" fill="#C7D1D9" x="0" y="133" width="34" height="25" rx="4"/><rect id="Data" fill="#C5CFD6" x="0" y="100" width="34" height="25" rx="4"/></g></g><g id="Rows" transform="translate(16.000000, 44.000000)"><g id="Row"><rect id="Container" fill="#FFF" x="0" y="0" width="225" height="47" rx="4"/><g id="Text-Stuff" transform="translate(9.000000, 14.100000)" fill="#C7D1D9"><rect id="Label" x="0" y="0" width="167" height="7.05" rx="3"/><rect id="Label" x="0" y="11.75" width="112.096" height="7.05" rx="3"/></g><g id="Check" transform="translate(193.954198, 16.500000)"><circle id="Background" fill="#C7D1D9" cx="7" cy="7" r="7"/><circle id="Indicator" fill="#F2F2F2" cx="7" cy="7" r="3"/></g></g><g id="Row" transform="translate(0.000000, 55.000000)"><rect id="Container" fill="#FFF" x="0" y="0" width="225" height="39" rx="4"/><g id="Text-Stuff" transform="translate(9.000000, 11.700000)" fill="#C7D1D9"><rect id="Label" x="0" y="0" width="167" height="5.85" rx="2.925"/><rect id="Label" x="0" y="9.75" width="112.096" height="5.85" rx="2.925"/></g><g id="Check" transform="translate(193.954198, 12.500000)"><circle id="Background" fill="#C7D1D9" cx="7" cy="7" r="7"/><circle id="Indicator" fill="#F2F2F2" cx="7" cy="7" r="3"/></g></g><g id="Row" transform="translate(0.000000, 102.000000)"><rect id="Container" fill="#FFF" x="0" y="0" width="225" height="39" rx="4"/><g id="Text-Stuff" transform="translate(9.000000, 11.700000)" fill="#C7D1D9"><rect id="Label" x="0" y="0" width="167" height="5.85" rx="2.925"/><rect id="Label" x="0" y="9.75" width="112.096" height="5.85" rx="2.925"/></g><g id="Check" transform="translate(193.954198, 12.500000)"><circle id="Background" fill="#C7D1D9" cx="7" cy="7" r="7"/><circle id="Indicator" fill="#AFB9C5" cx="7" cy="7" r="3"/></g></g><g id="Row" transform="translate(0.000000, 243.000000)"><rect id="Container" fill="#FFF" x="0" y="0" width="225" height="39" rx="4"/><g id="Text-Stuff" transform="translate(9.000000, 11.700000)" fill="#C7D1D9"><rect id="Label" x="0" y="0" width="167" height="5.85" rx="2.925"/><rect id="Label" x="0" y="9.75" width="112.096" height="5.85" rx="2.925"/></g><g id="Check" transform="translate(193.954198, 12.500000)"><circle id="Background" fill="#C7D1D9" cx="7" cy="7" r="7"/><circle id="Indicator" fill="#F2F2F2" cx="7" cy="7" r="3"/></g></g><g id="Row" transform="translate(0.000000, 196.000000)"><rect id="Container" fill="#FFF" x="0" y="0" width="225" height="39" rx="4"/><g id="Text-Stuff" transform="translate(9.000000, 11.700000)" fill="#C7D1D9"><rect id="Label" x="0" y="0" width="167" height="5.85" rx="2.925"/><rect id="Label" x="0" y="9.75" width="112.096" height="5.85" rx="2.925"/></g><g id="Check" transform="translate(193.954198, 12.500000)"><circle id="Background" fill="#C7D1D9" cx="7" cy="7" r="7"/><circle id="Indicator" fill="#F2F2F2" cx="7" cy="7" r="3"/></g></g><g id="Row" transform="translate(0.000000, 149.000000)"><rect id="Container" fill="#FFF" x="0" y="0" width="225" height="39" rx="4"/><g id="Text-Stuff" transform="translate(9.000000, 11.700000)" fill="#C7D1D9"><rect id="Label" x="0" y="0" width="167" height="5.85" rx="2.925"/><rect id="Label" x="0" y="9.75" width="112.096" height="5.85" rx="2.925"/></g><g id="Check" transform="translate(193.954198, 12.500000)"><circle id="Background" fill="#C7D1D9" cx="7" cy="7" r="7"/><circle id="Indicator" fill="#F2F2F2" cx="7" cy="7" r="3"/></g></g></g></g><g id="Graph" transform="translate(520.000000, 114.000000)"><rect id="Value" fill="#C7D1D9" x="0" y="32" width="6" height="25" rx="3"/><rect id="Value" fill="#C7D1D9" x="14" y="16" width="6" height="41" rx="3"/><rect id="Value" fill="#C7D1D9" x="28" y="8" width="6" height="49" rx="3"/><rect id="Value" fill="#C7D1D9" x="42" y="16" width="6" height="41" rx="3"/><rect id="Value" fill="#C5CFD6" x="56" y="0" width="6" height="57" rx="3"/></g><g id="Chart" transform="translate(801.000000, 467.000000)"><path d="M37.7664728,37.179 C35.8448939,39.219 33.1227826,40.5 30.095205,40.5 C24.2778019,40.5 19.5618833,35.799 19.5618833,30 C19.5618833,24.201 24.2778019,19.5 30.095205,19.5 L30.095205,0 C13.5458518,0 0,13.503 0,30 C0,46.497 13.5458518,60 30.095205,60 C38.788205,60 46.6445583,56.334 52,50.502 L37.7664728,37.179 Z" id="Value" fill="#F2F2F2"/><path d="M30,0 L30,19.5 C35.799,19.5 40.5,24.201 40.5,30 L60,30 C60,13.503 46.497,0 30,0 Z" id="Value" fill="#AFB9C5"/><path d="M40.0969635,30 C40.0969635,33.4069834 38.4924726,36.4354131 36,38.3907651 L48.2618015,54 C55.3993366,48.4117535 60,39.7492845 60,30 L40.0969635,30 Z" id="Value" fill="#C5CFD6"/></g><g id="Chart" transform="translate(141.000000, 231.000000)"><path d="M29.0511329,28.5039 C27.5729953,30.0679 25.4790636,31.05 23.1501577,31.05 C18.6752322,31.05 15.0476025,27.4459 15.0476025,23 C15.0476025,18.5541 18.6752322,14.95 23.1501577,14.95 L23.1501577,0 C10.419886,0 0,10.3523 0,23 C0,35.6477 10.419886,46 23.1501577,46 C29.8370808,46 35.8804294,43.1894 40,38.7182 L29.0511329,28.5039 Z" id="Value" fill="#F2F2F2"/><path d="M23,0 L23,14.95 C27.4459,14.95 31.05,18.5541 31.05,23 L46,23 C46,10.3523 35.6477,0 23,0 Z" id="Value" fill="#AFB9C5"/><path d="M31.0727226,23 C31.0727226,25.5552376 29.8693544,27.8265598 28,29.2930738 L37.1963511,41 C42.5495024,36.8088151 46,30.3119634 46,23 L31.0727226,23 Z" id="Value" fill="#C5CFD6"/></g><g id="Image" transform="translate(818.000000, 189.000000)"><path d="M48.007,51.9862978 C48.003,51.9962978 47.999,52.0062978 47.993,52.0182978 C47.999,52.0082978 48.007,51.9682978 48.007,51.9862978" id="Fill-35" fill="#C5CFD6"/><path d="M47.9976864,52.0014952 C47.9976864,52.0034952 47.9956864,52.0074952 47.9956864,52.0114952 C47.9956864,52.0014952 48.0136864,51.9714952 47.9976864,52.0014952" id="Fill-37" fill="#C5CFD6"/><path d="M48.0671431,51.8323017 C48.0531431,51.8723017 48.0351431,51.9103017 48.0191431,51.9503017 C48.0271431,51.9303017 48.0351431,51.9143017 48.0431431,51.8943017 C47.8351431,52.4143017 47.9671431,52.0763017 48.0671431,51.8323017" id="Fill-39" fill="#C5CFD6"/><path d="M48.0223751,51.95275 C48.0143751,51.97075 48.0063751,51.99075 47.9983751,52.00875 C47.9403751,52.12075 48.0223751,51.95275 48.0223751,51.95275" id="Fill-41" fill="#C5CFD6"/><polygon id="Fill-43" fill="#C5CFD6" points="48 52.001 48 52.001 48 51.999"/><path d="M47.999,52.002 C47.999,52 47.999,52 48.001,51.998 C47.999,52 47.999,52 47.999,52.002" id="Fill-45" fill="#C5CFD6"/><path d="M47.9895117,52.0163509 C47.9775117,52.0403509 48.0455117,51.9243509 47.9895117,52.0163509" id="Fill-47" fill="#C5CFD6"/><path d="M47.998,52.002 L48.002,51.998 C48,52 48,52.002 47.998,52.002" id="Fill-49" fill="#C5CFD6"/><rect id="Photo-Background" fill="#C5CFD6" x="0" y="0" width="95" height="63" rx="4"/><polygon id="Mountains" fill="#AFB9C5" points="36 18 8 63 64 63"/><polygon id="Mountains" fill="#AFB9C5" points="63.5 30 39 63 88 63"/><circle id="Sun" fill="#FFF" cx="74" cy="21" r="9"/></g><g id="Image" transform="translate(219.000000, 527.000000) scale(-1, 1) translate(-219.000000, -527.000000) translate(148.000000, 480.000000)"><path d="M71.007,76.9862978 C71.003,76.9962978 70.999,77.0062978 70.993,77.0182978 C70.999,77.0082978 71.007,76.9682978 71.007,76.9862978" id="Fill-35" fill="#C5CFD6"/><path d="M70.9976864,77.0014952 C70.9976864,77.0034952 70.9956864,77.0074952 70.9956864,77.0114952 C70.9956864,77.0014952 71.0136864,76.9714952 70.9976864,77.0014952" id="Fill-37" fill="#C5CFD6"/><path d="M71.0671431,76.8323017 C71.0531431,76.8723017 71.0351431,76.9103017 71.0191431,76.9503017 C71.0271431,76.9303017 71.0351431,76.9143017 71.0431431,76.8943017 C70.8351431,77.4143017 70.9671431,77.0763017 71.0671431,76.8323017" id="Fill-39" fill="#C5CFD6"/><path d="M71.0223751,76.95275 C71.0143751,76.97075 71.0063751,76.99075 70.9983751,77.00875 C70.9403751,77.12075 71.0223751,76.95275 71.0223751,76.95275" id="Fill-41" fill="#C5CFD6"/><polygon id="Fill-43" fill="#C5CFD6" points="71 77.001 71 77.001 71 76.999"/><path d="M70.999,77.002 C70.999,77 70.999,77 71.001,76.998 C70.999,77 70.999,77 70.999,77.002" id="Fill-45" fill="#C5CFD6"/><path d="M70.9895117,77.0163509 C70.9775117,77.0403509 71.0455117,76.9243509 70.9895117,77.0163509" id="Fill-47" fill="#C5CFD6"/><path d="M70.998,77.002 L71.002,76.998 C71,77 71,77.002 70.998,77.002" id="Fill-49" fill="#C5CFD6"/><rect id="Photo-Background" fill="#C7D1D9" x="0" y="0" width="142" height="94" rx="4"/><polygon id="Mountains" fill="#AFB9C5" points="52.7257937 27 11.6707937 94 93.7807937 94"/><polygon id="Mountains" fill="#C5CFD6" points="95.0557937 44.9464286 58.7607937 94 131.350794 94"/><circle id="Sun" fill="#FFF" cx="110.5" cy="31.5" r="13.5"/></g></g></g><g transform="translate(374.000000, 214.000000) scale(1 1)" id="Master/Pose/Standing"><g id="Master/Pose/Standing" stroke="none" stroke-width="1" fill="none" fill-rule="evenodd"><g id="Head/Front" transform="translate(82.000000, 0.000000) scale(1 1)"><g id="Head/Front/Curly" stroke="none" stroke-width="1" fill="none" fill-rule="evenodd"><g id="Head" transform="translate(54.000000, 31.000000)" fill="#915b3c"><path d="M38.1433414,9.13393292 C43.9381521,19.9350547 43.249578,47.3329958 35.7603014,49.2634576 C32.773664,50.0333035 26.4113241,48.1475566 19.935865,44.2446031 L24,73 L0,73 L8.26160177,34.4893378 C3.65406109,29.0807313 0.535660132,22.452516 1.05677633,15.0254539 C2.55833022,-6.37502057 32.3485306,-1.66718886 38.1433414,9.13393292 Z" id="SKIN"/></g><path d="M102.7757,25.1604378 C102.27871,23.413499 100.941932,21.9177553 99.1403997,21.4740102 C98.7035309,21.3663739 98.2523568,21.3228991 97.8028308,21.3410245 C97.6415842,21.3474604 97.5963613,21.3939561 97.5210118,21.2811974 C97.4651095,21.197597 97.463857,20.9933574 97.44085,20.8951122 C97.3692581,20.5896064 97.2797352,20.2879096 97.169249,19.9940277 C96.7923038,18.9916772 96.1588538,18.1045809 95.3952068,17.3573001 C93.9668625,15.9592762 92.0369134,14.9944243 90.0318126,14.8198684 C88.9343996,14.7243814 87.8449632,14.9026807 86.8074738,15.2596732 C86.2703367,15.444474 85.7494825,15.6745884 85.2422083,15.9290015 C85.0894658,16.0055749 84.5939258,16.3806273 84.4406558,16.3563287 C84.2713667,16.3295345 83.9311403,15.9088402 83.793494,15.8032397 C82.0920984,14.4978789 79.9910802,13.9846529 77.8718674,14 C75.4798671,14.0180142 73.1765325,14.1375371 71.1815838,15.5957165 C70.7592838,15.9044402 70.3570902,16.2424535 69.974146,16.5983297 C69.7724889,16.7856917 69.5771603,16.9800806 69.3908631,17.1825471 C69.2784651,17.3046969 69.1690337,17.4296049 69.0636894,17.5578621 C68.8849074,17.7755645 68.9135837,17.8470813 68.6633416,17.6951821 C67.7032454,17.1118841 66.5906702,16.8390829 65.4700524,16.976797 C64.80463,17.0586242 64.1572045,17.2583982 63.5424765,17.5213485 C63.3331724,17.6108594 62.8487074,17.9679176 62.6256255,17.9713982 C62.4043234,17.9748132 61.9266485,17.6438267 61.6986882,17.5597009 C60.4674524,17.1051856 59.1403652,16.9931493 57.8462393,17.2031681 C56.5113072,17.4198854 55.1999755,17.9524847 54.068942,18.6884699 C53.524949,19.0425073 53.0503065,19.4347656 52.6690763,19.9611918 C52.5044676,20.1884823 52.3556804,20.4289072 52.1691195,20.6396484 C52.0598858,20.7630459 51.8435939,20.8896614 51.7849887,21.0458292 C51.8200595,20.9523124 50.3250675,20.3759756 50.1839932,20.3391337 C49.43241,20.1428403 48.6671149,20.1826375 47.9311554,20.4248355 C46.5472429,20.8802703 45.3570768,21.9016 44.3789178,22.9487388 C43.8765219,23.4865919 43.4368843,24.0811198 43.0636966,24.7145254 C42.8848487,25.0179297 42.7212948,25.3300027 42.5716506,25.6487085 C42.4991357,25.8031032 42.4510782,25.9962443 42.3555564,26.1353375 C42.232413,26.3145561 42.1496802,26.3179711 41.9266642,26.3961207 C40.7940485,26.7929104 39.7615692,27.4645372 38.9753108,28.3720574 C38.1800209,29.2902166 37.663979,30.42089 37.4476212,31.6115877 C37.4348981,31.6817253 37.427317,31.9723892 37.3862473,32.0103476 C37.3299494,32.0626224 37.1021869,32.0395059 37.0160261,32.0496194 C36.7176606,32.0846225 36.4214046,32.1367003 36.1291039,32.2059185 C35.5902528,32.3334534 35.0657729,32.5211438 34.5696396,32.7666254 C32.6356033,33.723531 31.2525478,35.5174909 30.5756549,37.5361144 C29.8654051,39.6545592 29.8779963,42.0815964 30.7268813,44.1605068 C30.8640002,44.4962873 31.0271586,44.8222171 31.2187955,45.1305467 C31.3364672,45.3198132 31.3744386,45.3202729 31.2980344,45.5188648 C31.2128624,45.7397851 31.0572852,45.9544667 30.9561599,46.1703303 C30.6262175,46.874793 30.3955544,47.6219424 30.2498656,48.3850501 C30.0108303,49.6368226 29.8923675,50.9522969 30.1281725,52.2135918 C30.2376699,52.799254 30.4284498,53.3717818 30.7194979,53.8934139 C30.8678896,54.1593852 31.0415297,54.411631 31.2375834,54.6449634 C31.3393678,54.7661281 31.4474808,54.881842 31.5605381,54.9926962 C31.6252081,55.0560039 31.7099845,55.111431 31.7649639,55.1821597 C31.8991823,55.3546142 31.9273971,55.2128285 31.8581785,55.4660594 C31.7614041,55.8200967 31.5420138,56.1694057 31.4076636,56.5139206 C31.2692262,56.868943 31.1441052,57.2288251 31.0296636,57.5922535 C30.7978799,58.3281731 30.6018921,59.077424 30.479342,59.8395467 C30.2439984,61.3027828 30.2853319,62.8618999 30.9774529,64.204825 C31.2733793,64.7792573 31.6979207,65.2831579 32.2128419,65.6751536 C32.4648638,65.8669157 32.7378492,66.0322119 33.0242168,66.1679557 C33.171356,66.2378307 33.3592353,66.2677771 33.4263445,66.4100881 C33.4985956,66.5631037 33.3913396,66.8669677 33.3668823,67.038043 C33.1540843,68.5263001 33.0473557,70.0888978 33.489762,71.5473398 C33.8972294,72.890659 34.7943696,74.0766939 35.9591555,74.8619331 C38.2187834,76.3851933 41.2646697,76.2992944 43.6389369,75.0798325 C44.257818,74.7619147 44.8368159,74.3672265 45.3533193,73.9016782 C46.6685404,75.6721932 49.3749915,75.6161751 51.2972276,75.1116834 C53.6920627,74.4832031 55.6137056,72.8179602 56.7208751,70.6300344 C58.2347869,72.4729856 61.411991,71.8750427 62.4618079,69.8757268 C62.718774,69.3864053 62.871187,68.8471075 62.9462069,68.3013738 C62.9856945,68.0143875 62.9605121,67.7249057 62.9901773,67.4402179 C63.0280168,67.0774462 63.2703482,66.7249193 63.4096426,66.3739686 C63.6809139,65.6909806 63.8493461,64.9854671 63.8565976,64.2487595 C63.8603552,63.8641191 63.8116384,63.4892637 63.7750514,63.1077099 C63.742156,62.7642457 63.8374141,62.4442264 63.8915365,62.105228 C63.277336,62.2063627 62.5290489,62.0407382 61.9503806,61.8626359 C61.3825236,61.6878829 60.8506603,61.2275884 60.4498511,60.8072225 C59.5192222,59.831075 58.950706,58.5514576 58.5618947,57.2778821 C57.7083952,54.4826224 58.0582462,51.1289544 60.8697779,49.5948583 C62.1795274,48.8802164 66.1033718,48.8825605 67.6633416,49.2357609 C69.3035816,49.6071356 71.1630595,53.2263842 71.25456,53.5665648 C71.3111875,53.7771089 71.282709,54.0376951 71.4761258,54.1779703 C71.9011945,54.4864314 72.6022151,53.9511395 72.9157428,53.6869414 C73.4567694,53.2309812 73.8426801,52.624304 74.1769075,52.0093522 C74.9051541,50.669645 75.4922605,49.2329403 75.9069794,47.7662893 C76.2267038,46.6355502 76.4311297,45.4695452 76.8490129,44.367636 C77.2648524,43.2711776 77.9203865,42.2911555 78.9396153,41.6700305 C80.048367,40.9943321 81.3192882,40.638456 82.5364825,40.2138213 C83.7429973,39.7929956 84.9286806,39.2786532 85.8639241,38.385712 C86.0695366,38.189353 86.269282,37.9807133 86.4348135,37.7495481 C86.5654721,37.5670459 86.6946144,37.2176712 86.8937005,37.1019573 C87.203207,36.9219506 87.6549084,37.39006 87.9225541,37.560019 C89.2429831,38.3986494 90.3446151,39.5682663 91.2331195,40.8459792 C92.1166797,42.1167309 92.841683,43.3394764 93.430833,44.7584496 C93.8678337,45.8108422 94.1405685,47.158627 94.9091597,48.0210964 C95.2522867,48.4061965 97.8028308,48.6391716 98.6289725,48.3029602 C99.4551141,47.9667489 100.380997,47.0937432 100.658267,46.5466304 C100.942129,45.9866459 101.009964,45.371497 100.888666,44.7584496 C100.817338,44.3977794 100.671649,44.0608825 100.591949,43.7066481 C100.52484,43.4090887 100.463927,43.1278158 100.319095,42.8552117 C100.044594,42.3386363 99.5756205,41.9673273 99.0100708,41.8120789 C99.5986275,41.2694318 100.086323,40.6202648 100.42378,39.8945901 C100.774422,39.1406764 101.071601,38.2238307 101.155916,37.3963645 C101.224476,36.7242781 101.11867,36.0279587 100.750756,35.4503742 C100.36478,34.844485 99.6810307,34.4492057 99.0894416,34.0712638 C99.9931082,33.3642399 100.766512,32.5043974 101.402335,31.5524173 C102.638845,29.7011258 103.403678,27.3675397 102.7757,25.1604378 Z" id="hair" fill="#b58143"/></g></g><g id="Bottom/Standing" transform="translate(0.000000, 187.000000) scale(1 1)"><g id="Bottom/Standing/Skinny Jeans Walk" stroke="none" stroke-width="1" fill="none" fill-rule="evenodd"><polygon id="Leg" fill="#191847" points="128 0 176.081639 127.226909 209.783329 221 229 221 182.673688 9.81437154e-14"/><path d="M116.116628,0 C115.593979,43.6541888 115.971833,102.427468 114.754071,105.148648 C113.942229,106.962768 88.6908725,127.632305 39,167.157257 L48.9049803,184 C107.899481,145.955797 138.9048,124.399339 141.920937,119.330628 C146.445143,111.72756 169.1744,41.763137 181,0 L116.116628,0 Z" id="Leg" fill="#393f82"/><path d="M18.7225778,205.606482 L19.7225778,184.606482 L40.7225778,184.606482 C50.6801811,191.606482 63.6801811,197.273149 79.7225778,201.606482 L79.7225778,205.606482 L41.7225778,205.606482 L28.7225778,203.606482 L28.7225778,205.606482 L18.7225778,205.606482 Z" id="Shoe" fill="#191847" transform="translate(49.222578, 195.106482) rotate(50.000000) translate(-49.222578, -195.106482)"/><path d="M208,239 L209,218 L230,218 C239.957603,225 252.957603,230.666667 269,235 L269,239 L231,239 L218,237 L218,239 L208,239 Z" id="Shoe" fill="#191847"/></g></g><g id="Body" transform="translate(22.000000, 82.000000) scale(1 1)"><g id="Body/Jacket" stroke="none" stroke-width="1" fill="none" fill-rule="evenodd"><path d="M68.3079281,93.0198914 L89.2053198,93.1020711 C76.3021447,134.755739 69.3363474,156.856914 68.3079281,159.405597 C65.9939846,165.140133 70.8906002,173.873732 72.9845874,178.567103 C66.1645409,181.61887 66.8912241,170.316929 58.2879189,174.319492 C50.4352209,177.972846 44.4616931,184.59248 35.3890352,178.994371 C34.2736052,178.306117 33.0512757,175.714714 36.0045784,173.68967 C43.3623323,168.644547 53.9653015,159.814672 55.3979297,156.908251 C57.3515741,152.944826 61.6549068,131.648706 68.3079281,93.0198914 L68.3079281,93.0198914 Z M194.04441,89.1225115 L222.372314,116.757535 C230.61469,120.273345 237.368143,124.155511 242.632673,128.40403 C243.816587,129.832102 245.10547,132.568362 239.535214,131.343925 C233.964957,130.119488 228.050816,129.082079 227.003896,130.893567 C225.956977,132.705055 229.041811,135.480899 227.106974,137.851671 C225.817082,139.432186 221.479076,134.404878 214.092956,122.769747 L184.635682,105.402467 L194.04441,89.1225115 Z" id="SKIN" fill="#915b3c"/><path d="M122.01899,9.23199981 L130.503942,7.00082913 C148.576175,42.7520052 177.414525,74.1501034 217.01899,101.195124 L192.061793,137.56505 C151.33882,97.6857553 124.670571,55.1985909 122.01899,9.23199981 Z" id="Coat-Back" fill="#c5cfd6" transform="translate(169.518990, 72.282940) rotate(5.000000) translate(-169.518990, -72.282940)"/><path d="M90,114 L167,114 C149.16087,70.6251468 140.241304,33.7787236 140.241304,3.4607303 L117.014208,0 C98.7598929,29.3584068 93.6048263,65.5045499 90,114 Z" id="Shirt" fill="#C7D1D9"/><path d="M118.047752,-4.26325641e-14 C119.86198,0.0624731357 122.625282,0.175030894 126.337658,0.337673275 L126.337658,0.337673275 L131.950158,16.3768801 C132.543836,35.9324229 136.010826,75.3421183 142.351127,134.605966 L142.351127,134.605966 L91.8760675,134.60553 C92.008386,138.698782 92.2265651,142.830272 92.5306047,147 L92.5306047,147 L55,147 C60.6139164,83.6639633 81.1152373,34.6639633 116.503963,1.42108547e-14 L116.503963,1.42108547e-14 L116.522,0.017 L116.531583,-4.26325641e-14 Z" id="Coat-Front" fill="#f2f2f2"/><path d="M106,135 L91.889057,134.999288 C91.2713571,116.643048 92.3783198,99.0548837 95.2099449,82.2347951 C96.6469231,107.748771 100.243477,125.3371 106,135 Z" id="Shade" fill-opacity=".1" fill="#000"/><polygon id="Light" fill-opacity=".2" fill="#FFF" points="103.110899 104 128 92.4292718 128 104"/></g></g></g></g></g></svg>