<svg viewBox="-2.7162162162161962 54.50000000000006 427.80405405405406 449.6250000000001" xmlns="http://www.w3.org/2000/svg" xmlns:xlink="http://www.w3.org/1999/xlink" overflow="visible" width="427.80405405405406px" height="449.6250000000001px"><defs><path d="M170,387 C263.888407,387 340,310.980246 340,217.205128 L340,0 L0,0 L0,217.205128 C0,310.980246 76.1115925,387 170,387 Z" id="mastercompositionspace-path-1"/><path d="M170,387 C205.216822,387 237.932549,376.304457 265.068658,357.988177 C310.277694,327.473068 395.38799,374.053861 395.38799,214.5 C395.38799,108.13076 376.925327,36.6307596 340,4.26325641e-14 C34.2812211,-18.1625487 -118.578168,-18.1625487 -118.578168,4.26325641e-14 C-118.578168,27.243823 -118.578168,147.669814 -118.578168,214.5 C-118.578168,281.330186 -7.63531809,486.494026 88.6358482,441.342688 C101.580018,435.271851 118.53617,416.249491 139.504305,384.275609 C152.894574,386.09187 163.059806,387 170,387 Z" id="mastercompositionspace-path-3"/></defs><g id="Master/Composition/Space" stroke="none" stroke-width="1" fill="none" fill-rule="evenodd"><circle id="Oval" fill="#FFA9C4" cx="42" cy="371" r="42"/><ellipse id="Oval" fill="#AED5F8" cx="201" cy="275.5" rx="170" ry="169.5"/><polygon id="Polygon" fill="#7A8DFF" points="71 124 104 157 71 190 38 157"/><g id="Character-And-Mask" transform="translate(31.000000, 58.000000)"><mask id="mastercompositionspace-mask-2" fill="#fff"><use xlink:href="#mastercompositionspace-path-1"/></mask><use id="Mask" fill="#0007E9" opacity=".278" xlink:href="#mastercompositionspace-path-1"/><mask id="mastercompositionspace-mask-4" fill="#fff"><use xlink:href="#mastercompositionspace-path-3"/></mask><g id="Mask" opacity=".278"/><g mask="url(#mastercompositionspace-mask-4)"><g transform="translate(129.459178, 86.342688) rotate(-27.000000) translate(-129.459178, -86.342688) translate(26.459178, 11.342688) scale(1.5147058823529411 1.4423076923076923)" id="Head/Front"><g id="Head/Front/Chongo" stroke="none" stroke-width="1" fill="none" fill-rule="evenodd"><g id="Head" transform="translate(54.000000, 31.000000)" fill="#57331f"><path d="M38.1433414,9.13393292 C43.9381521,19.9350547 43.249578,47.3329958 35.7603014,49.2634576 C32.773664,50.0333035 26.4113241,48.1475566 19.935865,44.2446031 L24,73 L0,73 L8.26160177,34.4893378 C3.65406109,29.0807313 0.535660132,22.452516 1.05677633,15.0254539 C2.55833022,-6.37502057 32.3485306,-1.66718886 38.1433414,9.13393292 Z" id="SKIN"/></g><path d="M82.6634951,28.3699763 C79.3840534,27.3699763 74.6234565,27.0308443 72.6208149,27.2602642 C73.7600087,24.5308439 74.2120576,21.4899413 73.8435286,18.5290858 C73.4853344,15.6520661 72.1997702,13.2023672 71.0108165,10.6353788 C70.4627695,9.45216518 69.8416903,8.27540043 68.9156982,7.37037661 C67.972405,6.44834378 66.7783223,5.83972796 65.5262119,5.54936581 C64.2448581,5.2521517 62.9050174,5.27689939 61.6216732,5.54662502 C61.0539519,5.66592985 60.5445644,5.92549845 59.9877902,6.0697928 C59.4176191,6.21763405 59.141031,5.86076752 58.7271824,5.50212755 C57.7298424,4.63797369 56.2677456,4.21137833 55.0059895,4.0587004 C53.5903607,3.88748186 52.1214506,4.10102137 50.7713517,4.56639079 C49.457233,5.01942668 48.1947879,5.75508602 47.2446815,6.82681415 C46.8216464,7.30387223 46.4376536,7.8468704 46.188089,8.44637714 C46.0857368,8.69240304 46.0688185,8.83814839 45.8233112,8.9282719 C45.5962532,9.01170466 45.3306889,9.014123 45.0963584,9.0935252 C42.8305256,9.86094542 40.8932607,11.6116631 39.8384289,13.8595111 C39.2230147,15.1708968 38.9314987,17.4797836 39.0113441,20.0676663 C39.0911894,22.655549 41.4279109,29.4080735 43.613439,31.8710732 C45.5642539,34.0695065 48.4317213,35.5202692 51.1990566,36.1553256 C49.36223,38.2548487 48.1395162,40.8784262 47.2353419,43.5466625 C46.2532361,46.4450442 45.6454006,49.4566043 45.4209456,52.525076 C45.2077438,55.4404668 45.187993,58.5235291 45.8714634,61.3766879 C46.5108389,64.0448435 47.8781623,66.233684 50.1607604,67.6222954 C51.2063292,68.2583997 52.331284,68.7362639 53.4627459,69.1730163 C54.5778253,69.6034004 55.6962731,70.021854 56.8643276,70.2633656 C59.0749653,70.7202709 61.6221325,70.641836 63.3249903,68.8822511 C63.9387204,68.2479202 64.6136933,67.450835 65.0614552,66.675918 C65.2224473,66.3972445 65.3195173,66.2149822 65.1239229,65.9425963 C64.8895924,65.6163621 64.5105756,65.3663863 64.2095669,65.1111707 C62.493006,63.6560549 61.4304424,61.7134822 61.1625814,59.4049338 C60.8908162,57.0626093 61.5200101,54.03928 63.7973259,53.0170472 C66.6084499,51.7551569 69.7042766,53.2035819 72.2028323,54.5537417 C73.264707,50.805958 75.4450295,47.4314855 78.8633764,45.7123675 C82.6451998,43.8105035 86.9847925,43.5879355 90.871188,41.9561196 C91.8839153,41.5308947 92.9153983,41.0481938 93.6610301,40.1817828 C93.9726032,39.8196765 94.3381465,39.3499541 94.4625461,38.871042 C94.625988,38.2419509 94.220254,37.7145107 93.9068437,37.2240711 C92.2450186,34.623629 85.9429367,29.3699763 82.6634951,28.3699763 Z" id="hair" fill="#181658"/></g></g></g><g id="Character-Lower-Body" mask="url(#mastercompositionspace-mask-4)"><g transform="translate(-26.540822, 268.342688)"><polygon id="SKIN" fill="#57331f" points="201.893333 0 275.843003 179.84314 325.441353 331.885357 345.026667 331.885357 266.188356 7.36933529e-13"/><path d="M187.002386,0 C186.214928,63.1981144 174.730895,148.284118 172.896133,152.223566 C171.672959,154.849866 129.44701,188.247837 46.2182876,252.417479 L59.7078008,266.287878 C157.909983,211.27046 209.283232,180.092767 213.827545,172.7548 C220.644016,161.747848 242.836096,60.460441 260.653333,0 L187.002386,0 Z" id="SKIN" fill="#57331f"/><polygon id="Pant" fill="#56919c" points="251.613333 316.225019 344.73206 306.51449 269.693333 4.11460731e-14 192.31707 4.11460731e-14"/><path d="M65.4796702,230.040024 L126.56,299.508545 C190.894595,231.993667 228.401833,187.940197 239.081711,167.348135 C249.76159,146.756073 259.362258,90.9733616 267.883714,0 L173.987073,0 C169.332221,80.0343953 166.194527,121.913789 164.573991,125.638181 C162.953454,129.362573 129.922014,164.163187 65.4796702,230.040024 Z" id="Pant" fill="#89c5cc"/></g></g><g mask="url(#mastercompositionspace-mask-4)"><g transform="translate(184.959178, 257.842688) rotate(-14.000000) translate(-184.959178, -257.842688) translate(-7.540822, 122.342688) scale(1.50390625 1.4491978609625669)" id="Body"><g id="Body/Jacket 2" stroke="none" stroke-width="1" fill="none" fill-rule="evenodd"><path d="M51.5082829,82 L72,86.0658446 C51.3920824,124.471059 40.3404263,144.825845 38.8450319,147.130202 C35.4803944,152.315007 38.6196693,161.817238 39.7793043,166.821179 C32.5044044,168.51462 35.3734014,157.565005 26.1671562,159.851185 C17.7641225,161.937904 10.6393632,167.293169 2.8038784,160.07074 C1.84055159,159.182785 1.13535082,156.407288 4.41981989,154.983749 C12.6026301,151.437195 24.6920431,144.796343 26.6523424,142.218096 C29.3255608,138.702197 37.6108743,118.629498 51.5082829,82 Z M254.188168,51.2551684 L253.816855,51.7996726 C250.728428,56.3479545 247.838405,61.1194481 249.076289,62.7052963 C250.363689,64.3545786 254.093006,62.5342201 255.566345,65.2162765 C256.548571,67.0043141 250.262286,69.1431805 236.707491,71.6328758 L209.56994,92.4392868 L198,77.6170876 L234.234567,61.7041739 C240.582018,55.3790221 246.711387,50.5716141 252.622674,47.2819501 C254.390261,46.7192094 257.410101,46.5491987 254.188168,51.2551684 Z" id="SKIN" fill="#57331f"/><path d="M123.280247,9.87718027 L131.765198,7.64600959 C152.120135,24.2050747 163.602366,67.2616718 176.61267,71.9556463 C188.913385,76.3936093 205.208593,69.6320097 224.503164,60.7390322 L231.796052,73.8353428 C215.409826,95.0000245 178.298612,114.916545 161.84294,106.839809 C135.533742,93.9267871 125.046804,40.501408 123.280247,9.87718027 Z" id="Coat-Back" fill="#e87613" transform="translate(177.538150, 58.161768) rotate(5.000000) translate(-177.538150, -58.161768)"/><path d="M90,114 C124.671756,114 150.175573,114 166.511451,114 C170.007634,114 169.348845,108.951637 168.84345,106.404206 C163.010588,77.0037663 140.241304,45.3115155 140.241304,3.4607303 L118.1718,0 C99.917485,29.3584068 93.6048263,65.5045499 90,114 Z" id="Shirt" fill="#C7D1D9"/><path d="M125.486398,0 C145.298923,67.5369477 150.760885,112.536948 141.872285,135 L141.872285,135 L73,135 C74.0896915,118.562494 77.5838029,101.179176 82.3695915,84.2302075 C66.7719945,112.366884 53.6611932,132.623153 43.0374452,145 L27,141.85882 C37.3305927,77.7906722 67.2466105,30.5043988 116.748053,-9.9475983e-14 Z" id="Coat-Front" fill="#ffa434"/></g></g></g></g><circle id="Oval" fill="#FFEBA9" cx="291" cy="442" r="42"/><polygon id="Polygon" fill="#2026A2" opacity=".399" points="294 82 302 90 294 98 286 90"/></g></svg>