<svg viewBox="130.9999999999999 78.46153846153845 786.0000000000001 562.3076923076924" xmlns="http://www.w3.org/2000/svg" overflow="visible" xmlns:xlink="http://www.w3.org/1999/xlink" width="786.0000000000001px" height="562.3076923076924px"><g id="Master/Scene/1 Character" stroke="none" stroke-width="1" fill="none" fill-rule="evenodd"><g id="Background" transform="translate(-3.000000, 0.000000) scale(1 1)"><g id="Background/Wireframe 2" stroke="none" stroke-width="1" fill="none" fill-rule="evenodd"><g id="Mobile3" transform="translate(723.000000, 91.000000)"><rect id="Container" fill="#C7D1D9" x="0" y="0" width="147" height="280" rx="8"/><circle id="Touch" fill="#FFF" cx="73" cy="248" r="15"/><g id="Camera" transform="translate(58.000000, 15.000000)" fill="#FFF"><circle id="Lens" cx="2" cy="2" r="2"/><rect id="Sensor" x="9" y="0" width="21" height="4" rx="2"/></g><g id="Rows" transform="translate(14.000000, 28.000000)"><g id="Row"><rect id="Container" fill="#FFF" x="0" y="0" width="119" height="50.765" rx="4"/><g id="Text-Stuff" transform="translate(9.000000, 15.228000)" fill="#C7D1D9"><rect id="Label" x="0" y="0" width="61" height="7.614" rx="3"/><rect id="Label" x="0" y="12.69" width="40.945" height="7.614" rx="3"/></g><g id="Check" transform="translate(99.282443, 18.380000)"><circle id="Background" fill="#C7D1D9" cx="7" cy="7" r="7"/><circle id="Indicator" fill="#F2F2F2" cx="7" cy="7" r="3"/></g></g><g id="Row" transform="translate(0.000000, 59.000000)"><rect id="Background" fill="#FFF" x="0" y="0" width="119" height="37.706" rx="4"/><g id="Text" transform="translate(39.000000, 11.314027)" fill="#C7D1D9"><rect id="Name" x="0" y="0" width="61" height="5.657" rx="2.829"/><rect id="Name" x="0" y="9.428" width="40.945" height="5.657" rx="2.829"/></g><circle id="Avatar" fill="#C5CFD6" cx="21" cy="18.857" r="12"/></g><g id="Row" transform="translate(0.000000, 105.000000)"><rect id="Container" fill="#FFF" x="0" y="0" width="119" height="37.706" rx="4"/><g id="Text-Stuff" transform="translate(9.000000, 11.314027)" fill="#C7D1D9"><rect id="Label" x="0" y="0" width="61" height="5.657" rx="2.829"/><rect id="Label" x="0" y="9.428" width="40.945" height="5.657" rx="2.829"/></g><g id="Check" transform="translate(99.282443, 11.856712)"><circle id="Background" fill="#C7D1D9" cx="7" cy="7" r="7"/><circle id="Indicator" fill="#F2F2F2" cx="7" cy="7" r="3"/></g></g><g id="Row" transform="translate(0.000000, 151.000000)"><rect id="Background" fill="#FFF" x="0" y="0" width="119" height="37.706" rx="4"/><g id="Text" transform="translate(39.000000, 11.314027)" fill="#C7D1D9"><rect id="Name" x="0" y="0" width="61" height="5.657" rx="2.829"/><rect id="Name" x="0" y="9.428" width="40.945" height="5.657" rx="2.829"/></g><circle id="Avatar" fill="#C5CFD6" cx="21" cy="18.857" r="12"/></g></g></g><g id="Mobile3" transform="translate(219.000000, 114.000000)"><rect id="Container" fill="#F2F2F2" x="0" y="0" width="159" height="302" rx="8"/><circle id="Touch" fill="#FFF" cx="79" cy="268" r="15"/><g id="Camera" transform="translate(64.000000, 16.000000)" fill="#FFF"><circle id="Lens" cx="2" cy="2" r="2"/><rect id="Sensor" x="9" y="0" width="21" height="4" rx="2"/></g><g id="Rows" transform="translate(14.000000, 28.000000)"><g id="Row"><rect id="Background" fill="#FFF" x="0" y="0" width="131" height="54" rx="4"/><g id="Text" transform="translate(39.000000, 16.200000)" fill="#C7D1D9"><rect id="Name" x="0" y="0" width="73" height="8.1" rx="3"/><rect id="Name" x="0" y="13.5" width="49" height="8.1" rx="3"/></g><circle id="Avatar" fill="#C5CFD6" cx="21" cy="27" r="12"/></g><g id="Row" transform="translate(0.000000, 62.000000)"><rect id="Background" fill="#FFF" x="0" y="0" width="131" height="42" rx="4"/><g id="Text" transform="translate(39.000000, 12.600000)" fill="#C7D1D9"><rect id="Name" x="0" y="0" width="73" height="6.3" rx="3"/><rect id="Name" x="0" y="10.5" width="49" height="6.3" rx="3"/></g><circle id="Avatar" fill="#C5CFD6" cx="21" cy="21" r="12"/></g><g id="Row" transform="translate(0.000000, 112.000000)"><rect id="Background" fill="#FFF" x="0" y="0" width="131" height="42" rx="4"/><g id="Text" transform="translate(39.000000, 12.600000)" fill="#C7D1D9"><rect id="Name" x="0" y="0" width="73" height="6.3" rx="3"/><rect id="Name" x="0" y="10.5" width="49" height="6.3" rx="3"/></g><circle id="Avatar" fill="#AFB9C5" cx="21" cy="21" r="12"/></g><g id="Row" transform="translate(0.000000, 162.000000)"><rect id="Background" fill="#FFF" x="0" y="0" width="131" height="42" rx="4"/><g id="Text" transform="translate(39.000000, 12.600000)" fill="#C7D1D9"><rect id="Name" x="0" y="0" width="73" height="6.3" rx="3"/><rect id="Name" x="0" y="10.5" width="49" height="6.3" rx="3"/></g><circle id="Avatar" fill="#C5CFD6" cx="21" cy="21" r="12"/></g></g></g><g id="Web" transform="translate(384.000000, 191.000000)"><rect id="Container" fill="#F2F2F2" x="0" y="0" width="335" height="346" rx="8"/><rect id="Background" fill="#FFF" x="249" y="43" width="70" height="81" rx="8"/><g id="Profile-Info" transform="translate(259.000000, 58.000000)" fill="#C7D1D9"><circle id="Avatar" cx="25" cy="16" r="16"/><rect id="Name" x="0" y="36" width="50" height="6" rx="3"/><rect id="Name" x="8" y="46" width="34" height="6" rx="3"/></g><path d="M8,0 L327,0 C331.418278,-8.11624501e-16 335,3.581722 335,8 L335,27 L335,27 L0,27 L0,8 C-5.41083001e-16,3.581722 3.581722,8.11624501e-16 8,0 Z" id="Header" fill="#C5CFD6"/><g id="Buttons" transform="translate(9.000000, 10.000000)" fill="#F2F2F2"><circle id="buttons" cx="4" cy="4" r="4"/><circle id="buttons" cx="16" cy="4" r="4"/><circle id="buttons" cx="28" cy="4" r="4"/></g><g id="Components" transform="translate(249.000000, 132.000000)"><rect id="Background" fill="#FFF" x="0" y="0" width="70" height="194" rx="8"/><g id="Rows" transform="translate(18.000000, 18.000000)"><rect id="Data" fill="#C7D1D9" x="0" y="0" width="34" height="26" rx="4"/><rect id="Data" fill="#AFB9C5" x="0" y="34" width="34" height="25" rx="4"/><rect id="Data" fill="#C7D1D9" x="0" y="67" width="34" height="25" rx="4"/><rect id="Data" fill="#C7D1D9" x="0" y="133" width="34" height="25" rx="4"/><rect id="Data" fill="#C5CFD6" x="0" y="100" width="34" height="25" rx="4"/></g></g><g id="Rows" transform="translate(16.000000, 44.000000)"><g id="Row"><rect id="Container" fill="#FFF" x="0" y="0" width="225" height="47" rx="4"/><g id="Text-Stuff" transform="translate(9.000000, 14.100000)" fill="#C7D1D9"><rect id="Label" x="0" y="0" width="167" height="7.05" rx="3"/><rect id="Label" x="0" y="11.75" width="112.096" height="7.05" rx="3"/></g><g id="Check" transform="translate(193.954198, 16.500000)"><circle id="Background" fill="#C7D1D9" cx="7" cy="7" r="7"/><circle id="Indicator" fill="#F2F2F2" cx="7" cy="7" r="3"/></g></g><g id="Row" transform="translate(0.000000, 55.000000)"><rect id="Container" fill="#FFF" x="0" y="0" width="225" height="39" rx="4"/><g id="Text-Stuff" transform="translate(9.000000, 11.700000)" fill="#C7D1D9"><rect id="Label" x="0" y="0" width="167" height="5.85" rx="2.925"/><rect id="Label" x="0" y="9.75" width="112.096" height="5.85" rx="2.925"/></g><g id="Check" transform="translate(193.954198, 12.500000)"><circle id="Background" fill="#C7D1D9" cx="7" cy="7" r="7"/><circle id="Indicator" fill="#F2F2F2" cx="7" cy="7" r="3"/></g></g><g id="Row" transform="translate(0.000000, 102.000000)"><rect id="Container" fill="#FFF" x="0" y="0" width="225" height="39" rx="4"/><g id="Text-Stuff" transform="translate(9.000000, 11.700000)" fill="#C7D1D9"><rect id="Label" x="0" y="0" width="167" height="5.85" rx="2.925"/><rect id="Label" x="0" y="9.75" width="112.096" height="5.85" rx="2.925"/></g><g id="Check" transform="translate(193.954198, 12.500000)"><circle id="Background" fill="#C7D1D9" cx="7" cy="7" r="7"/><circle id="Indicator" fill="#AFB9C5" cx="7" cy="7" r="3"/></g></g><g id="Row" transform="translate(0.000000, 243.000000)"><rect id="Container" fill="#FFF" x="0" y="0" width="225" height="39" rx="4"/><g id="Text-Stuff" transform="translate(9.000000, 11.700000)" fill="#C7D1D9"><rect id="Label" x="0" y="0" width="167" height="5.85" rx="2.925"/><rect id="Label" x="0" y="9.75" width="112.096" height="5.85" rx="2.925"/></g><g id="Check" transform="translate(193.954198, 12.500000)"><circle id="Background" fill="#C7D1D9" cx="7" cy="7" r="7"/><circle id="Indicator" fill="#F2F2F2" cx="7" cy="7" r="3"/></g></g><g id="Row" transform="translate(0.000000, 196.000000)"><rect id="Container" fill="#FFF" x="0" y="0" width="225" height="39" rx="4"/><g id="Text-Stuff" transform="translate(9.000000, 11.700000)" fill="#C7D1D9"><rect id="Label" x="0" y="0" width="167" height="5.85" rx="2.925"/><rect id="Label" x="0" y="9.75" width="112.096" height="5.85" rx="2.925"/></g><g id="Check" transform="translate(193.954198, 12.500000)"><circle id="Background" fill="#C7D1D9" cx="7" cy="7" r="7"/><circle id="Indicator" fill="#F2F2F2" cx="7" cy="7" r="3"/></g></g><g id="Row" transform="translate(0.000000, 149.000000)"><rect id="Container" fill="#FFF" x="0" y="0" width="225" height="39" rx="4"/><g id="Text-Stuff" transform="translate(9.000000, 11.700000)" fill="#C7D1D9"><rect id="Label" x="0" y="0" width="167" height="5.85" rx="2.925"/><rect id="Label" x="0" y="9.75" width="112.096" height="5.85" rx="2.925"/></g><g id="Check" transform="translate(193.954198, 12.500000)"><circle id="Background" fill="#C7D1D9" cx="7" cy="7" r="7"/><circle id="Indicator" fill="#F2F2F2" cx="7" cy="7" r="3"/></g></g></g></g><g id="Graph" transform="translate(520.000000, 114.000000)"><rect id="Value" fill="#C7D1D9" x="0" y="32" width="6" height="25" rx="3"/><rect id="Value" fill="#C7D1D9" x="14" y="16" width="6" height="41" rx="3"/><rect id="Value" fill="#C7D1D9" x="28" y="8" width="6" height="49" rx="3"/><rect id="Value" fill="#C7D1D9" x="42" y="16" width="6" height="41" rx="3"/><rect id="Value" fill="#C5CFD6" x="56" y="0" width="6" height="57" rx="3"/></g><g id="Chart" transform="translate(801.000000, 467.000000)"><path d="M37.7664728,37.179 C35.8448939,39.219 33.1227826,40.5 30.095205,40.5 C24.2778019,40.5 19.5618833,35.799 19.5618833,30 C19.5618833,24.201 24.2778019,19.5 30.095205,19.5 L30.095205,0 C13.5458518,0 0,13.503 0,30 C0,46.497 13.5458518,60 30.095205,60 C38.788205,60 46.6445583,56.334 52,50.502 L37.7664728,37.179 Z" id="Value" fill="#F2F2F2"/><path d="M30,0 L30,19.5 C35.799,19.5 40.5,24.201 40.5,30 L60,30 C60,13.503 46.497,0 30,0 Z" id="Value" fill="#AFB9C5"/><path d="M40.0969635,30 C40.0969635,33.4069834 38.4924726,36.4354131 36,38.3907651 L48.2618015,54 C55.3993366,48.4117535 60,39.7492845 60,30 L40.0969635,30 Z" id="Value" fill="#C5CFD6"/></g><g id="Chart" transform="translate(141.000000, 231.000000)"><path d="M29.0511329,28.5039 C27.5729953,30.0679 25.4790636,31.05 23.1501577,31.05 C18.6752322,31.05 15.0476025,27.4459 15.0476025,23 C15.0476025,18.5541 18.6752322,14.95 23.1501577,14.95 L23.1501577,0 C10.419886,0 0,10.3523 0,23 C0,35.6477 10.419886,46 23.1501577,46 C29.8370808,46 35.8804294,43.1894 40,38.7182 L29.0511329,28.5039 Z" id="Value" fill="#F2F2F2"/><path d="M23,0 L23,14.95 C27.4459,14.95 31.05,18.5541 31.05,23 L46,23 C46,10.3523 35.6477,0 23,0 Z" id="Value" fill="#AFB9C5"/><path d="M31.0727226,23 C31.0727226,25.5552376 29.8693544,27.8265598 28,29.2930738 L37.1963511,41 C42.5495024,36.8088151 46,30.3119634 46,23 L31.0727226,23 Z" id="Value" fill="#C5CFD6"/></g><g id="Image" transform="translate(818.000000, 189.000000)"><path d="M48.007,51.9862978 C48.003,51.9962978 47.999,52.0062978 47.993,52.0182978 C47.999,52.0082978 48.007,51.9682978 48.007,51.9862978" id="Fill-35" fill="#C5CFD6"/><path d="M47.9976864,52.0014952 C47.9976864,52.0034952 47.9956864,52.0074952 47.9956864,52.0114952 C47.9956864,52.0014952 48.0136864,51.9714952 47.9976864,52.0014952" id="Fill-37" fill="#C5CFD6"/><path d="M48.0671431,51.8323017 C48.0531431,51.8723017 48.0351431,51.9103017 48.0191431,51.9503017 C48.0271431,51.9303017 48.0351431,51.9143017 48.0431431,51.8943017 C47.8351431,52.4143017 47.9671431,52.0763017 48.0671431,51.8323017" id="Fill-39" fill="#C5CFD6"/><path d="M48.0223751,51.95275 C48.0143751,51.97075 48.0063751,51.99075 47.9983751,52.00875 C47.9403751,52.12075 48.0223751,51.95275 48.0223751,51.95275" id="Fill-41" fill="#C5CFD6"/><polygon id="Fill-43" fill="#C5CFD6" points="48 52.001 48 52.001 48 51.999"/><path d="M47.999,52.002 C47.999,52 47.999,52 48.001,51.998 C47.999,52 47.999,52 47.999,52.002" id="Fill-45" fill="#C5CFD6"/><path d="M47.9895117,52.0163509 C47.9775117,52.0403509 48.0455117,51.9243509 47.9895117,52.0163509" id="Fill-47" fill="#C5CFD6"/><path d="M47.998,52.002 L48.002,51.998 C48,52 48,52.002 47.998,52.002" id="Fill-49" fill="#C5CFD6"/><rect id="Photo-Background" fill="#C5CFD6" x="0" y="0" width="95" height="63" rx="4"/><polygon id="Mountains" fill="#AFB9C5" points="36 18 8 63 64 63"/><polygon id="Mountains" fill="#AFB9C5" points="63.5 30 39 63 88 63"/><circle id="Sun" fill="#FFF" cx="74" cy="21" r="9"/></g><g id="Image" transform="translate(219.000000, 527.000000) scale(-1, 1) translate(-219.000000, -527.000000) translate(148.000000, 480.000000)"><path d="M71.007,76.9862978 C71.003,76.9962978 70.999,77.0062978 70.993,77.0182978 C70.999,77.0082978 71.007,76.9682978 71.007,76.9862978" id="Fill-35" fill="#C5CFD6"/><path d="M70.9976864,77.0014952 C70.9976864,77.0034952 70.9956864,77.0074952 70.9956864,77.0114952 C70.9956864,77.0014952 71.0136864,76.9714952 70.9976864,77.0014952" id="Fill-37" fill="#C5CFD6"/><path d="M71.0671431,76.8323017 C71.0531431,76.8723017 71.0351431,76.9103017 71.0191431,76.9503017 C71.0271431,76.9303017 71.0351431,76.9143017 71.0431431,76.8943017 C70.8351431,77.4143017 70.9671431,77.0763017 71.0671431,76.8323017" id="Fill-39" fill="#C5CFD6"/><path d="M71.0223751,76.95275 C71.0143751,76.97075 71.0063751,76.99075 70.9983751,77.00875 C70.9403751,77.12075 71.0223751,76.95275 71.0223751,76.95275" id="Fill-41" fill="#C5CFD6"/><polygon id="Fill-43" fill="#C5CFD6" points="71 77.001 71 77.001 71 76.999"/><path d="M70.999,77.002 C70.999,77 70.999,77 71.001,76.998 C70.999,77 70.999,77 70.999,77.002" id="Fill-45" fill="#C5CFD6"/><path d="M70.9895117,77.0163509 C70.9775117,77.0403509 71.0455117,76.9243509 70.9895117,77.0163509" id="Fill-47" fill="#C5CFD6"/><path d="M70.998,77.002 L71.002,76.998 C71,77 71,77.002 70.998,77.002" id="Fill-49" fill="#C5CFD6"/><rect id="Photo-Background" fill="#C7D1D9" x="0" y="0" width="142" height="94" rx="4"/><polygon id="Mountains" fill="#AFB9C5" points="52.7257937 27 11.6707937 94 93.7807937 94"/><polygon id="Mountains" fill="#C5CFD6" points="95.0557937 44.9464286 58.7607937 94 131.350794 94"/><circle id="Sun" fill="#FFF" cx="110.5" cy="31.5" r="13.5"/></g></g></g><g transform="translate(374.000000, 214.000000) scale(1 1)" id="Master/Pose/Standing"><g id="Master/Pose/Standing" stroke="none" stroke-width="1" fill="none" fill-rule="evenodd"><g id="Head/Front" transform="translate(82.000000, 0.000000) scale(1 1)"><defs><path d="M51.4175453,12.0507955 C51.8498576,10.8051312 54.7962768,6.94578045 49.5487779,3.26896817 C48.605788,2.60823496 47.0479654,3.26680115 45.6982041,2.84976736 C44.6826295,2.53598679 44.3402497,1.11914512 43.1760935,0.871968648 C41.9683844,0.615544926 40.6526543,1.77773804 39.2876744,1.67560585 C38.4512965,1.61302535 37.1608106,0.309613766 36.2900993,0.239406864 C34.7357321,0.114075645 33.3236788,1.58124561 31.8056285,1.67560585 C30.9255704,1.73030923 29.9045174,0.314316544 29.0310773,0.239406864 C26.9052532,0.0570877616 24.9691519,1.0481315 23.0958488,1.34868149 C21.3693306,1.62568151 20.5665115,5.16380349 19.2947513,6 C15.3039208,8.62401555 12.1771246,9.35770789 8.938704,12.0507955 C5.08904423,15.2522965 4.352246,17.6341562 2.75742877,19.767516 C1.16261154,21.9008757 0.177496659,29.4172796 1.10754484,34.2343867 C1.65615994,37.0758928 3.08584831,44.8361111 6.27968827,47.8406111 C10.6511987,51.952966 19.5447273,53.1714059 20.3342266,52.6227265 C23.990621,50.0816371 32.186894,36.0268608 38,31.0596268 C42.2746625,27.4069756 48.7394296,19.767516 51.4175453,12.0507955 Z" id="headfrontturban2-path-1"/></defs><g id="Head/Front/Turban2" stroke="none" stroke-width="1" fill="none" fill-rule="evenodd"><g id="Head" transform="translate(54.000000, 31.000000)" fill="#57331f"><path d="M38.1433414,9.13393292 C43.9381521,19.9350547 43.249578,47.3329958 35.7603014,49.2634576 C32.773664,50.0333035 26.4113241,48.1475566 19.935865,44.2446031 L24,73 L0,73 L8.26160177,34.4893378 C3.65406109,29.0807313 0.535660132,22.452516 1.05677633,15.0254539 C2.55833022,-6.37502057 32.3485306,-1.66718886 38.1433414,9.13393292 Z" id="SKIN"/></g><g id="Turban" transform="translate(40.000000, 22.000000)"><mask id="headfrontturban2-mask-2" fill="#fff"><use xlink:href="#headfrontturban2-path-1"/></mask><use id="Path" fill="#FFA434" xlink:href="#headfrontturban2-path-1"/><path d="M34.1200359,-1.25901608 C30.8584911,12.5005919 28.3300264,22.1357612 26.5346419,27.6464918 C24.7137273,33.2355841 23.2304509,37.9704516 21.9545611,41.8451306 C24.5801764,36.0295537 27.9569456,28.56681 31.0112076,20.9117197 C33.2010503,15.4231782 35.5306478,8.39485486 38,-0.173250307 L40.9719724,-0.173250307 C36.290024,13.1700568 32.768261,22.4881471 30.4066836,27.7810206 C26.60679,36.297513 23.8767993,42.7645741 21.7019404,47.1041542 C25.3445515,41.763724 30.9484918,33.0516783 36.922643,21.335361 C39.1872587,16.894068 41.853295,10.0938106 44.9207521,0.934588622 L47.6868166,2.11790169 C43.0427818,13.7106968 39.4547239,21.7949743 36.922643,26.3707343 C28.6691874,41.2856732 20.7882084,50.2847641 18.0335245,52.8387957 C17.5576168,53.2800381 17.398031,53.3833045 17.5112894,53.1586499 C17.4740169,53.1518331 17.4460457,53.1289131 17.4278914,53.089452 C17.2342776,53.3828025 17.0414566,53.6396744 16.848515,53.8603451 C14.0706214,57.0374698 21.1787066,39.3265874 26.4178167,20.7516317 C28.0219544,15.0642561 29.6041303,7.83092542 31.1643443,-0.948360367 L34.1200359,-1.25901608 Z" id="Shade" fill-opacity=".2" fill="#000" mask="url(#headfrontturban2-mask-2)"/></g></g></g><g id="Bottom/Standing" transform="translate(0.000000, 187.000000) scale(1 1)"><g id="Bottom/Standing/Sprint" stroke="none" stroke-width="1" fill="none" fill-rule="evenodd"><path d="M207.469522,-9.65840194 C188.34471,5.93412613 195.620321,142.644251 194.343793,144.365431 C193.776447,145.1304 163.468239,151.639612 103.419169,163.893066 L106.01112,174.474064 C176.253239,170.987921 213.421261,166.637951 217.515185,161.424153 C223.376511,153.959489 230.620797,112.212202 239.248044,36.1822931 L207.469522,-9.65840194 Z" id="SKIN" fill="#57331f" transform="translate(171.333606, 82.407831) rotate(-55.000000) translate(-171.333606, -82.407831)"/><path d="M207.469522,-9.65840194 C188.34471,5.93412613 195.620321,142.644251 194.343793,144.365431 C193.776447,145.1304 163.468239,151.639612 103.419169,163.893066 L106.01112,174.474064 C176.253239,170.987921 213.421261,166.637951 217.515185,161.424153 C223.376511,153.959489 230.620797,112.212202 239.248044,36.1822931 L207.469522,-9.65840194 Z" id="shadow" fill-opacity=".1" fill="#000" transform="translate(171.333606, 82.407831) rotate(-55.000000) translate(-171.333606, -82.407831)"/><path d="M113.540088,152.75781 L118.105527,169.799273 C170.465638,175.811529 204.983252,168.36956 217.132934,156.81223 C225.232723,149.107343 232.495664,107.473517 238.921759,31.9107522 L204.926407,-16.6396419 C159.401042,17.7063231 186.537309,130.140454 185.373895,132.713083 C184.210481,135.285712 156.597106,137.319958 113.540088,152.75781 Z" id="Pant" fill="#1820bf" transform="translate(176.230924, 77.646617) rotate(-55.000000) translate(-176.230924, -77.646617)"/><g id="Right" transform="translate(219.664877, 196.035191) rotate(20.000000) translate(-219.664877, -196.035191) translate(190.664877, 185.535191)" fill="#E4E4E4"><path d="M1.67813181,6.40192425 C0.559377268,9.38841089 4.54747351e-13,11.6229931 4.54747351e-13,13.1056708 C4.54747351e-13,14.908957 0.300414205,17.5404001 0.901242614,21 C2.99318117,21 21.7937852,21 57.3030548,21 C58.768738,16.1545073 57.9226607,13.5385816 54.7648228,13.1522232 C51.606985,12.7658647 48.9837155,12.4170139 46.8950143,12.1056708 L20.6799926,0.41888346 C20.1755635,0.194006431 19.584344,0.4206282 19.359467,0.925057349 C19.35562,0.933686736 19.3518954,0.94237021 19.3482945,0.951105155 L17.6632131,5.03869504 L17.6632131,5.03869504 C14.7398812,6.40265216 12.3643706,7.08463071 10.5366811,7.08463071 C9.05172687,7.08463071 7.00099246,6.48490544 4.38447792,5.28545491 L4.38448339,5.28544297 C3.38038273,4.82514778 2.19325534,5.26598921 1.73296014,6.27008987 C1.71312074,6.31336808 1.69483298,6.35734088 1.67813181,6.40192425 Z" id="shoe"/></g><polygon id="SKIN" fill="#57331f" points="130 0 78.2540376 124.226909 27.3958106 229.25029 39.3949124 229.25029 170.673688 0"/><g id="Left" transform="translate(25.000000, 218.000000)" fill="#E4E4E4"><path d="M1.67813181,6.40192425 C0.559377268,9.38841089 0,11.6229931 0,13.1056708 C0,14.908957 0.300414205,17.5404001 0.901242614,21 C2.99318117,21 21.7937852,21 57.3030548,21 C58.768738,16.1545073 57.9226607,13.5385816 54.7648228,13.1522232 C51.606985,12.7658647 48.9837155,12.4170139 46.8950143,12.1056708 L20.6799926,0.41888346 C20.1755635,0.194006431 19.584344,0.4206282 19.359467,0.925057349 C19.35562,0.933686736 19.3518954,0.94237021 19.3482945,0.951105155 L17.6632131,5.03869504 L17.6632131,5.03869504 C14.7398812,6.40265216 12.3643706,7.08463071 10.5366811,7.08463071 C9.05172687,7.08463071 7.00099246,6.48490544 4.38447792,5.28545491 L4.38448339,5.28544297 C3.38038273,4.82514778 2.19325534,5.26598921 1.73296014,6.27008987 C1.71312074,6.31336808 1.69483298,6.35734088 1.67813181,6.40192425 Z" id="shoe"/></g><path d="M31.9885488,207.432889 L58.6506859,212.432889 C79.2657755,182.124875 165.540767,57.851839 175,2.84217094e-14 L115.644073,2.84217094e-14 C84.0548806,41.821022 51.6389867,176.623522 31.9885488,207.432889 Z" id="Pant" fill="#2b44ff"/></g></g><g id="Body" transform="translate(22.000000, 82.000000) scale(1 1)"><g id="Body/Hoodie" stroke="none" stroke-width="1" fill="none" fill-rule="evenodd"><path d="M68.3079281,93.0198914 L89.2053198,93.1020711 C76.3021447,134.755739 69.3363474,156.856914 68.3079281,159.405597 C65.9939846,165.140133 70.8906002,173.873732 72.9845874,178.567103 C66.1645409,181.61887 66.8912241,170.316929 58.2879189,174.319492 C50.4352209,177.972846 44.4616931,184.59248 35.3890352,178.994371 C34.2736052,178.306117 33.0512757,175.714714 36.0045784,173.68967 C43.3623323,168.644547 53.9653015,159.814672 55.3979297,156.908251 C57.3515741,152.944826 61.6549068,131.648706 68.3079281,93.0198914 L68.3079281,93.0198914 Z M190.781205,92.2114854 L222.679476,115.635084 C231.330944,117.969562 238.558965,120.874047 244.363541,124.34854 C245.734683,125.597945 247.391836,128.128197 241.70538,127.690906 C236.018925,127.253615 230.01796,127.049392 229.233339,128.988954 C228.448719,130.928516 231.889854,133.24802 230.303794,135.864997 C229.246421,137.609648 224.250967,133.234999 215.31743,122.74105 L183.729774,109.642447 L190.781205,92.2114854 Z" id="SKIN" fill="#57331f"/><path d="M122.731734,9.58031077 L131.216685,7.34914009 C165.5935,32.1628362 183.361709,84.0563407 224.996623,108.72736 L216.58973,121.240539 C147.889238,118.771641 125.383314,55.5469019 122.731734,9.58031077 Z" id="Coat-Back" fill="#e87613" transform="translate(173.864178, 64.294840) rotate(5.000000) translate(-173.864178, -64.294840)"/><path d="M90,114 C124.671756,114 150.175573,114 166.511451,114 C170.007634,114 169.348845,108.951637 168.84345,106.404206 C163.010588,77.0037663 140.241304,45.3115155 140.241304,3.4607303 L118.1718,0 C99.917485,29.3584068 93.6048263,65.5045499 90,114 Z" id="Shirt" fill="#C7D1D9"/><path d="M116.510031,-7.10542736e-15 C117.255457,-6.66133815e-15 117.93832,0.0466286213 118.558619,0.139885864 L125.471587,0.534739944 C145.293986,67.7151944 150.760885,112.536948 141.872285,135 L141.872285,135 L81.6511486,135.001552 C78.0833907,143.320741 74.6693386,150.320224 71.4089926,156 L71.4089926,156 L55,156 C53.4556773,106.066899 65.3273884,63.686084 90.6151334,28.8575562 C87.4099906,27.9369844 84.8714148,25.7879767 83,22.4111902 C74.933557,7.85607578 77.8467271,-0.157592785 86.4671964,-2.7917309 C95.0876658,-5.42586901 102.775319,-2.04281037e-14 116.510031,-7.10542736e-15 Z" id="Coat-Front" fill="#ffa434"/><path d="M104,135 L81.6515228,135.000679 C85.8135041,125.295819 90.1846546,113.79505 94.7649742,100.498371 C96.6589721,116.343356 99.7372842,127.844605 104,135 Z" id="Shade" fill-opacity=".1" fill="#000"/></g></g></g></g></g></svg>